%TF.GenerationSoftware,KiCad,Pcbnew,7.0.7*%
%TF.CreationDate,2023-10-16T12:37:20+02:00*%
%TF.ProjectId,kicad_pendulum_receiver1,6b696361-645f-4706-956e-64756c756d5f,rev?*%
%TF.SameCoordinates,Original*%
%TF.FileFunction,Legend,Bot*%
%TF.FilePolarity,Positive*%
%FSLAX46Y46*%
G04 Gerber Fmt 4.6, Leading zero omitted, Abs format (unit mm)*
G04 Created by KiCad (PCBNEW 7.0.7) date 2023-10-16 12:37:20*
%MOMM*%
%LPD*%
G01*
G04 APERTURE LIST*
%ADD10C,0.150000*%
G04 APERTURE END LIST*
D10*
X135163220Y-61259819D02*
X135163220Y-60259819D01*
X134687030Y-60593152D02*
X134687030Y-61259819D01*
X134687030Y-60688390D02*
X134639411Y-60640771D01*
X134639411Y-60640771D02*
X134544173Y-60593152D01*
X134544173Y-60593152D02*
X134401316Y-60593152D01*
X134401316Y-60593152D02*
X134306078Y-60640771D01*
X134306078Y-60640771D02*
X134258459Y-60736009D01*
X134258459Y-60736009D02*
X134258459Y-61259819D01*
X133877506Y-60593152D02*
X133639411Y-61259819D01*
X133639411Y-61259819D02*
X133401316Y-60593152D01*
X132639411Y-61212200D02*
X132734649Y-61259819D01*
X132734649Y-61259819D02*
X132925125Y-61259819D01*
X132925125Y-61259819D02*
X133020363Y-61212200D01*
X133020363Y-61212200D02*
X133067982Y-61116961D01*
X133067982Y-61116961D02*
X133067982Y-60736009D01*
X133067982Y-60736009D02*
X133020363Y-60640771D01*
X133020363Y-60640771D02*
X132925125Y-60593152D01*
X132925125Y-60593152D02*
X132734649Y-60593152D01*
X132734649Y-60593152D02*
X132639411Y-60640771D01*
X132639411Y-60640771D02*
X132591792Y-60736009D01*
X132591792Y-60736009D02*
X132591792Y-60831247D01*
X132591792Y-60831247D02*
X133067982Y-60926485D01*
X132163220Y-61259819D02*
X132163220Y-60593152D01*
X132163220Y-60783628D02*
X132115601Y-60688390D01*
X132115601Y-60688390D02*
X132067982Y-60640771D01*
X132067982Y-60640771D02*
X131972744Y-60593152D01*
X131972744Y-60593152D02*
X131877506Y-60593152D01*
X131687029Y-60593152D02*
X131306077Y-60593152D01*
X131544172Y-60259819D02*
X131544172Y-61116961D01*
X131544172Y-61116961D02*
X131496553Y-61212200D01*
X131496553Y-61212200D02*
X131401315Y-61259819D01*
X131401315Y-61259819D02*
X131306077Y-61259819D01*
X130591791Y-61212200D02*
X130687029Y-61259819D01*
X130687029Y-61259819D02*
X130877505Y-61259819D01*
X130877505Y-61259819D02*
X130972743Y-61212200D01*
X130972743Y-61212200D02*
X131020362Y-61116961D01*
X131020362Y-61116961D02*
X131020362Y-60736009D01*
X131020362Y-60736009D02*
X130972743Y-60640771D01*
X130972743Y-60640771D02*
X130877505Y-60593152D01*
X130877505Y-60593152D02*
X130687029Y-60593152D01*
X130687029Y-60593152D02*
X130591791Y-60640771D01*
X130591791Y-60640771D02*
X130544172Y-60736009D01*
X130544172Y-60736009D02*
X130544172Y-60831247D01*
X130544172Y-60831247D02*
X131020362Y-60926485D01*
X129687029Y-61259819D02*
X129687029Y-60259819D01*
X129687029Y-61212200D02*
X129782267Y-61259819D01*
X129782267Y-61259819D02*
X129972743Y-61259819D01*
X129972743Y-61259819D02*
X130067981Y-61212200D01*
X130067981Y-61212200D02*
X130115600Y-61164580D01*
X130115600Y-61164580D02*
X130163219Y-61069342D01*
X130163219Y-61069342D02*
X130163219Y-60783628D01*
X130163219Y-60783628D02*
X130115600Y-60688390D01*
X130115600Y-60688390D02*
X130067981Y-60640771D01*
X130067981Y-60640771D02*
X129972743Y-60593152D01*
X129972743Y-60593152D02*
X129782267Y-60593152D01*
X129782267Y-60593152D02*
X129687029Y-60640771D01*
X128448933Y-61259819D02*
X128448933Y-60259819D01*
X128448933Y-60259819D02*
X128067981Y-60259819D01*
X128067981Y-60259819D02*
X127972743Y-60307438D01*
X127972743Y-60307438D02*
X127925124Y-60355057D01*
X127925124Y-60355057D02*
X127877505Y-60450295D01*
X127877505Y-60450295D02*
X127877505Y-60593152D01*
X127877505Y-60593152D02*
X127925124Y-60688390D01*
X127925124Y-60688390D02*
X127972743Y-60736009D01*
X127972743Y-60736009D02*
X128067981Y-60783628D01*
X128067981Y-60783628D02*
X128448933Y-60783628D01*
X127067981Y-61212200D02*
X127163219Y-61259819D01*
X127163219Y-61259819D02*
X127353695Y-61259819D01*
X127353695Y-61259819D02*
X127448933Y-61212200D01*
X127448933Y-61212200D02*
X127496552Y-61116961D01*
X127496552Y-61116961D02*
X127496552Y-60736009D01*
X127496552Y-60736009D02*
X127448933Y-60640771D01*
X127448933Y-60640771D02*
X127353695Y-60593152D01*
X127353695Y-60593152D02*
X127163219Y-60593152D01*
X127163219Y-60593152D02*
X127067981Y-60640771D01*
X127067981Y-60640771D02*
X127020362Y-60736009D01*
X127020362Y-60736009D02*
X127020362Y-60831247D01*
X127020362Y-60831247D02*
X127496552Y-60926485D01*
X126591790Y-60593152D02*
X126591790Y-61259819D01*
X126591790Y-60688390D02*
X126544171Y-60640771D01*
X126544171Y-60640771D02*
X126448933Y-60593152D01*
X126448933Y-60593152D02*
X126306076Y-60593152D01*
X126306076Y-60593152D02*
X126210838Y-60640771D01*
X126210838Y-60640771D02*
X126163219Y-60736009D01*
X126163219Y-60736009D02*
X126163219Y-61259819D01*
X125258457Y-61259819D02*
X125258457Y-60259819D01*
X125258457Y-61212200D02*
X125353695Y-61259819D01*
X125353695Y-61259819D02*
X125544171Y-61259819D01*
X125544171Y-61259819D02*
X125639409Y-61212200D01*
X125639409Y-61212200D02*
X125687028Y-61164580D01*
X125687028Y-61164580D02*
X125734647Y-61069342D01*
X125734647Y-61069342D02*
X125734647Y-60783628D01*
X125734647Y-60783628D02*
X125687028Y-60688390D01*
X125687028Y-60688390D02*
X125639409Y-60640771D01*
X125639409Y-60640771D02*
X125544171Y-60593152D01*
X125544171Y-60593152D02*
X125353695Y-60593152D01*
X125353695Y-60593152D02*
X125258457Y-60640771D01*
X124353695Y-60593152D02*
X124353695Y-61259819D01*
X124782266Y-60593152D02*
X124782266Y-61116961D01*
X124782266Y-61116961D02*
X124734647Y-61212200D01*
X124734647Y-61212200D02*
X124639409Y-61259819D01*
X124639409Y-61259819D02*
X124496552Y-61259819D01*
X124496552Y-61259819D02*
X124401314Y-61212200D01*
X124401314Y-61212200D02*
X124353695Y-61164580D01*
X123734647Y-61259819D02*
X123829885Y-61212200D01*
X123829885Y-61212200D02*
X123877504Y-61116961D01*
X123877504Y-61116961D02*
X123877504Y-60259819D01*
X122925123Y-60593152D02*
X122925123Y-61259819D01*
X123353694Y-60593152D02*
X123353694Y-61116961D01*
X123353694Y-61116961D02*
X123306075Y-61212200D01*
X123306075Y-61212200D02*
X123210837Y-61259819D01*
X123210837Y-61259819D02*
X123067980Y-61259819D01*
X123067980Y-61259819D02*
X122972742Y-61212200D01*
X122972742Y-61212200D02*
X122925123Y-61164580D01*
X122448932Y-61259819D02*
X122448932Y-60593152D01*
X122448932Y-60688390D02*
X122401313Y-60640771D01*
X122401313Y-60640771D02*
X122306075Y-60593152D01*
X122306075Y-60593152D02*
X122163218Y-60593152D01*
X122163218Y-60593152D02*
X122067980Y-60640771D01*
X122067980Y-60640771D02*
X122020361Y-60736009D01*
X122020361Y-60736009D02*
X122020361Y-61259819D01*
X122020361Y-60736009D02*
X121972742Y-60640771D01*
X121972742Y-60640771D02*
X121877504Y-60593152D01*
X121877504Y-60593152D02*
X121734647Y-60593152D01*
X121734647Y-60593152D02*
X121639408Y-60640771D01*
X121639408Y-60640771D02*
X121591789Y-60736009D01*
X121591789Y-60736009D02*
X121591789Y-61259819D01*
X119782266Y-61259819D02*
X120115599Y-60783628D01*
X120353694Y-61259819D02*
X120353694Y-60259819D01*
X120353694Y-60259819D02*
X119972742Y-60259819D01*
X119972742Y-60259819D02*
X119877504Y-60307438D01*
X119877504Y-60307438D02*
X119829885Y-60355057D01*
X119829885Y-60355057D02*
X119782266Y-60450295D01*
X119782266Y-60450295D02*
X119782266Y-60593152D01*
X119782266Y-60593152D02*
X119829885Y-60688390D01*
X119829885Y-60688390D02*
X119877504Y-60736009D01*
X119877504Y-60736009D02*
X119972742Y-60783628D01*
X119972742Y-60783628D02*
X120353694Y-60783628D01*
X118972742Y-61212200D02*
X119067980Y-61259819D01*
X119067980Y-61259819D02*
X119258456Y-61259819D01*
X119258456Y-61259819D02*
X119353694Y-61212200D01*
X119353694Y-61212200D02*
X119401313Y-61116961D01*
X119401313Y-61116961D02*
X119401313Y-60736009D01*
X119401313Y-60736009D02*
X119353694Y-60640771D01*
X119353694Y-60640771D02*
X119258456Y-60593152D01*
X119258456Y-60593152D02*
X119067980Y-60593152D01*
X119067980Y-60593152D02*
X118972742Y-60640771D01*
X118972742Y-60640771D02*
X118925123Y-60736009D01*
X118925123Y-60736009D02*
X118925123Y-60831247D01*
X118925123Y-60831247D02*
X119401313Y-60926485D01*
X118067980Y-61212200D02*
X118163218Y-61259819D01*
X118163218Y-61259819D02*
X118353694Y-61259819D01*
X118353694Y-61259819D02*
X118448932Y-61212200D01*
X118448932Y-61212200D02*
X118496551Y-61164580D01*
X118496551Y-61164580D02*
X118544170Y-61069342D01*
X118544170Y-61069342D02*
X118544170Y-60783628D01*
X118544170Y-60783628D02*
X118496551Y-60688390D01*
X118496551Y-60688390D02*
X118448932Y-60640771D01*
X118448932Y-60640771D02*
X118353694Y-60593152D01*
X118353694Y-60593152D02*
X118163218Y-60593152D01*
X118163218Y-60593152D02*
X118067980Y-60640771D01*
X117258456Y-61212200D02*
X117353694Y-61259819D01*
X117353694Y-61259819D02*
X117544170Y-61259819D01*
X117544170Y-61259819D02*
X117639408Y-61212200D01*
X117639408Y-61212200D02*
X117687027Y-61116961D01*
X117687027Y-61116961D02*
X117687027Y-60736009D01*
X117687027Y-60736009D02*
X117639408Y-60640771D01*
X117639408Y-60640771D02*
X117544170Y-60593152D01*
X117544170Y-60593152D02*
X117353694Y-60593152D01*
X117353694Y-60593152D02*
X117258456Y-60640771D01*
X117258456Y-60640771D02*
X117210837Y-60736009D01*
X117210837Y-60736009D02*
X117210837Y-60831247D01*
X117210837Y-60831247D02*
X117687027Y-60926485D01*
X116782265Y-61259819D02*
X116782265Y-60593152D01*
X116782265Y-60259819D02*
X116829884Y-60307438D01*
X116829884Y-60307438D02*
X116782265Y-60355057D01*
X116782265Y-60355057D02*
X116734646Y-60307438D01*
X116734646Y-60307438D02*
X116782265Y-60259819D01*
X116782265Y-60259819D02*
X116782265Y-60355057D01*
X116401313Y-60593152D02*
X116163218Y-61259819D01*
X116163218Y-61259819D02*
X115925123Y-60593152D01*
X115163218Y-61212200D02*
X115258456Y-61259819D01*
X115258456Y-61259819D02*
X115448932Y-61259819D01*
X115448932Y-61259819D02*
X115544170Y-61212200D01*
X115544170Y-61212200D02*
X115591789Y-61116961D01*
X115591789Y-61116961D02*
X115591789Y-60736009D01*
X115591789Y-60736009D02*
X115544170Y-60640771D01*
X115544170Y-60640771D02*
X115448932Y-60593152D01*
X115448932Y-60593152D02*
X115258456Y-60593152D01*
X115258456Y-60593152D02*
X115163218Y-60640771D01*
X115163218Y-60640771D02*
X115115599Y-60736009D01*
X115115599Y-60736009D02*
X115115599Y-60831247D01*
X115115599Y-60831247D02*
X115591789Y-60926485D01*
X114687027Y-61259819D02*
X114687027Y-60593152D01*
X114687027Y-60783628D02*
X114639408Y-60688390D01*
X114639408Y-60688390D02*
X114591789Y-60640771D01*
X114591789Y-60640771D02*
X114496551Y-60593152D01*
X114496551Y-60593152D02*
X114401313Y-60593152D01*
X113448931Y-60259819D02*
X113115598Y-61259819D01*
X113115598Y-61259819D02*
X112782265Y-60259819D01*
X111925122Y-61259819D02*
X112496550Y-61259819D01*
X112210836Y-61259819D02*
X112210836Y-60259819D01*
X112210836Y-60259819D02*
X112306074Y-60402676D01*
X112306074Y-60402676D02*
X112401312Y-60497914D01*
X112401312Y-60497914D02*
X112496550Y-60545533D01*
X111496550Y-61164580D02*
X111448931Y-61212200D01*
X111448931Y-61212200D02*
X111496550Y-61259819D01*
X111496550Y-61259819D02*
X111544169Y-61212200D01*
X111544169Y-61212200D02*
X111496550Y-61164580D01*
X111496550Y-61164580D02*
X111496550Y-61259819D01*
X110829884Y-60259819D02*
X110734646Y-60259819D01*
X110734646Y-60259819D02*
X110639408Y-60307438D01*
X110639408Y-60307438D02*
X110591789Y-60355057D01*
X110591789Y-60355057D02*
X110544170Y-60450295D01*
X110544170Y-60450295D02*
X110496551Y-60640771D01*
X110496551Y-60640771D02*
X110496551Y-60878866D01*
X110496551Y-60878866D02*
X110544170Y-61069342D01*
X110544170Y-61069342D02*
X110591789Y-61164580D01*
X110591789Y-61164580D02*
X110639408Y-61212200D01*
X110639408Y-61212200D02*
X110734646Y-61259819D01*
X110734646Y-61259819D02*
X110829884Y-61259819D01*
X110829884Y-61259819D02*
X110925122Y-61212200D01*
X110925122Y-61212200D02*
X110972741Y-61164580D01*
X110972741Y-61164580D02*
X111020360Y-61069342D01*
X111020360Y-61069342D02*
X111067979Y-60878866D01*
X111067979Y-60878866D02*
X111067979Y-60640771D01*
X111067979Y-60640771D02*
X111020360Y-60450295D01*
X111020360Y-60450295D02*
X110972741Y-60355057D01*
X110972741Y-60355057D02*
X110925122Y-60307438D01*
X110925122Y-60307438D02*
X110829884Y-60259819D01*
X134877506Y-63250771D02*
X134925125Y-63203152D01*
X134925125Y-63203152D02*
X135020363Y-63060295D01*
X135020363Y-63060295D02*
X135067982Y-62965057D01*
X135067982Y-62965057D02*
X135115601Y-62822200D01*
X135115601Y-62822200D02*
X135163220Y-62584104D01*
X135163220Y-62584104D02*
X135163220Y-62393628D01*
X135163220Y-62393628D02*
X135115601Y-62155533D01*
X135115601Y-62155533D02*
X135067982Y-62012676D01*
X135067982Y-62012676D02*
X135020363Y-61917438D01*
X135020363Y-61917438D02*
X134925125Y-61774580D01*
X134925125Y-61774580D02*
X134877506Y-61726961D01*
X134067982Y-62822200D02*
X134163220Y-62869819D01*
X134163220Y-62869819D02*
X134353696Y-62869819D01*
X134353696Y-62869819D02*
X134448934Y-62822200D01*
X134448934Y-62822200D02*
X134496553Y-62774580D01*
X134496553Y-62774580D02*
X134544172Y-62679342D01*
X134544172Y-62679342D02*
X134544172Y-62393628D01*
X134544172Y-62393628D02*
X134496553Y-62298390D01*
X134496553Y-62298390D02*
X134448934Y-62250771D01*
X134448934Y-62250771D02*
X134353696Y-62203152D01*
X134353696Y-62203152D02*
X134163220Y-62203152D01*
X134163220Y-62203152D02*
X134067982Y-62250771D01*
X133734648Y-63250771D02*
X133687029Y-63203152D01*
X133687029Y-63203152D02*
X133591791Y-63060295D01*
X133591791Y-63060295D02*
X133544172Y-62965057D01*
X133544172Y-62965057D02*
X133496553Y-62822200D01*
X133496553Y-62822200D02*
X133448934Y-62584104D01*
X133448934Y-62584104D02*
X133448934Y-62393628D01*
X133448934Y-62393628D02*
X133496553Y-62155533D01*
X133496553Y-62155533D02*
X133544172Y-62012676D01*
X133544172Y-62012676D02*
X133591791Y-61917438D01*
X133591791Y-61917438D02*
X133687029Y-61774580D01*
X133687029Y-61774580D02*
X133734648Y-61726961D01*
X132258457Y-61965057D02*
X132210838Y-61917438D01*
X132210838Y-61917438D02*
X132115600Y-61869819D01*
X132115600Y-61869819D02*
X131877505Y-61869819D01*
X131877505Y-61869819D02*
X131782267Y-61917438D01*
X131782267Y-61917438D02*
X131734648Y-61965057D01*
X131734648Y-61965057D02*
X131687029Y-62060295D01*
X131687029Y-62060295D02*
X131687029Y-62155533D01*
X131687029Y-62155533D02*
X131734648Y-62298390D01*
X131734648Y-62298390D02*
X132306076Y-62869819D01*
X132306076Y-62869819D02*
X131687029Y-62869819D01*
X131067981Y-61869819D02*
X130972743Y-61869819D01*
X130972743Y-61869819D02*
X130877505Y-61917438D01*
X130877505Y-61917438D02*
X130829886Y-61965057D01*
X130829886Y-61965057D02*
X130782267Y-62060295D01*
X130782267Y-62060295D02*
X130734648Y-62250771D01*
X130734648Y-62250771D02*
X130734648Y-62488866D01*
X130734648Y-62488866D02*
X130782267Y-62679342D01*
X130782267Y-62679342D02*
X130829886Y-62774580D01*
X130829886Y-62774580D02*
X130877505Y-62822200D01*
X130877505Y-62822200D02*
X130972743Y-62869819D01*
X130972743Y-62869819D02*
X131067981Y-62869819D01*
X131067981Y-62869819D02*
X131163219Y-62822200D01*
X131163219Y-62822200D02*
X131210838Y-62774580D01*
X131210838Y-62774580D02*
X131258457Y-62679342D01*
X131258457Y-62679342D02*
X131306076Y-62488866D01*
X131306076Y-62488866D02*
X131306076Y-62250771D01*
X131306076Y-62250771D02*
X131258457Y-62060295D01*
X131258457Y-62060295D02*
X131210838Y-61965057D01*
X131210838Y-61965057D02*
X131163219Y-61917438D01*
X131163219Y-61917438D02*
X131067981Y-61869819D01*
X130353695Y-61965057D02*
X130306076Y-61917438D01*
X130306076Y-61917438D02*
X130210838Y-61869819D01*
X130210838Y-61869819D02*
X129972743Y-61869819D01*
X129972743Y-61869819D02*
X129877505Y-61917438D01*
X129877505Y-61917438D02*
X129829886Y-61965057D01*
X129829886Y-61965057D02*
X129782267Y-62060295D01*
X129782267Y-62060295D02*
X129782267Y-62155533D01*
X129782267Y-62155533D02*
X129829886Y-62298390D01*
X129829886Y-62298390D02*
X130401314Y-62869819D01*
X130401314Y-62869819D02*
X129782267Y-62869819D01*
X129448933Y-61869819D02*
X128829886Y-61869819D01*
X128829886Y-61869819D02*
X129163219Y-62250771D01*
X129163219Y-62250771D02*
X129020362Y-62250771D01*
X129020362Y-62250771D02*
X128925124Y-62298390D01*
X128925124Y-62298390D02*
X128877505Y-62346009D01*
X128877505Y-62346009D02*
X128829886Y-62441247D01*
X128829886Y-62441247D02*
X128829886Y-62679342D01*
X128829886Y-62679342D02*
X128877505Y-62774580D01*
X128877505Y-62774580D02*
X128925124Y-62822200D01*
X128925124Y-62822200D02*
X129020362Y-62869819D01*
X129020362Y-62869819D02*
X129306076Y-62869819D01*
X129306076Y-62869819D02*
X129401314Y-62822200D01*
X129401314Y-62822200D02*
X129448933Y-62774580D01*
X127639409Y-62869819D02*
X127639409Y-61869819D01*
X127639409Y-61869819D02*
X127401314Y-61869819D01*
X127401314Y-61869819D02*
X127258457Y-61917438D01*
X127258457Y-61917438D02*
X127163219Y-62012676D01*
X127163219Y-62012676D02*
X127115600Y-62107914D01*
X127115600Y-62107914D02*
X127067981Y-62298390D01*
X127067981Y-62298390D02*
X127067981Y-62441247D01*
X127067981Y-62441247D02*
X127115600Y-62631723D01*
X127115600Y-62631723D02*
X127163219Y-62726961D01*
X127163219Y-62726961D02*
X127258457Y-62822200D01*
X127258457Y-62822200D02*
X127401314Y-62869819D01*
X127401314Y-62869819D02*
X127639409Y-62869819D01*
X126210838Y-62869819D02*
X126210838Y-62346009D01*
X126210838Y-62346009D02*
X126258457Y-62250771D01*
X126258457Y-62250771D02*
X126353695Y-62203152D01*
X126353695Y-62203152D02*
X126544171Y-62203152D01*
X126544171Y-62203152D02*
X126639409Y-62250771D01*
X126210838Y-62822200D02*
X126306076Y-62869819D01*
X126306076Y-62869819D02*
X126544171Y-62869819D01*
X126544171Y-62869819D02*
X126639409Y-62822200D01*
X126639409Y-62822200D02*
X126687028Y-62726961D01*
X126687028Y-62726961D02*
X126687028Y-62631723D01*
X126687028Y-62631723D02*
X126639409Y-62536485D01*
X126639409Y-62536485D02*
X126544171Y-62488866D01*
X126544171Y-62488866D02*
X126306076Y-62488866D01*
X126306076Y-62488866D02*
X126210838Y-62441247D01*
X125829885Y-62203152D02*
X125591790Y-62869819D01*
X125591790Y-62869819D02*
X125353695Y-62203152D01*
X124972742Y-62869819D02*
X124972742Y-62203152D01*
X124972742Y-61869819D02*
X125020361Y-61917438D01*
X125020361Y-61917438D02*
X124972742Y-61965057D01*
X124972742Y-61965057D02*
X124925123Y-61917438D01*
X124925123Y-61917438D02*
X124972742Y-61869819D01*
X124972742Y-61869819D02*
X124972742Y-61965057D01*
X124067981Y-62869819D02*
X124067981Y-61869819D01*
X124067981Y-62822200D02*
X124163219Y-62869819D01*
X124163219Y-62869819D02*
X124353695Y-62869819D01*
X124353695Y-62869819D02*
X124448933Y-62822200D01*
X124448933Y-62822200D02*
X124496552Y-62774580D01*
X124496552Y-62774580D02*
X124544171Y-62679342D01*
X124544171Y-62679342D02*
X124544171Y-62393628D01*
X124544171Y-62393628D02*
X124496552Y-62298390D01*
X124496552Y-62298390D02*
X124448933Y-62250771D01*
X124448933Y-62250771D02*
X124353695Y-62203152D01*
X124353695Y-62203152D02*
X124163219Y-62203152D01*
X124163219Y-62203152D02*
X124067981Y-62250771D01*
X122877504Y-62584104D02*
X122401314Y-62584104D01*
X122972742Y-62869819D02*
X122639409Y-61869819D01*
X122639409Y-61869819D02*
X122306076Y-62869819D01*
X121544171Y-62203152D02*
X121544171Y-62869819D01*
X121972742Y-62203152D02*
X121972742Y-62726961D01*
X121972742Y-62726961D02*
X121925123Y-62822200D01*
X121925123Y-62822200D02*
X121829885Y-62869819D01*
X121829885Y-62869819D02*
X121687028Y-62869819D01*
X121687028Y-62869819D02*
X121591790Y-62822200D01*
X121591790Y-62822200D02*
X121544171Y-62774580D01*
X120639409Y-62203152D02*
X120639409Y-63012676D01*
X120639409Y-63012676D02*
X120687028Y-63107914D01*
X120687028Y-63107914D02*
X120734647Y-63155533D01*
X120734647Y-63155533D02*
X120829885Y-63203152D01*
X120829885Y-63203152D02*
X120972742Y-63203152D01*
X120972742Y-63203152D02*
X121067980Y-63155533D01*
X120639409Y-62822200D02*
X120734647Y-62869819D01*
X120734647Y-62869819D02*
X120925123Y-62869819D01*
X120925123Y-62869819D02*
X121020361Y-62822200D01*
X121020361Y-62822200D02*
X121067980Y-62774580D01*
X121067980Y-62774580D02*
X121115599Y-62679342D01*
X121115599Y-62679342D02*
X121115599Y-62393628D01*
X121115599Y-62393628D02*
X121067980Y-62298390D01*
X121067980Y-62298390D02*
X121020361Y-62250771D01*
X121020361Y-62250771D02*
X120925123Y-62203152D01*
X120925123Y-62203152D02*
X120734647Y-62203152D01*
X120734647Y-62203152D02*
X120639409Y-62250771D01*
X119734647Y-62203152D02*
X119734647Y-62869819D01*
X120163218Y-62203152D02*
X120163218Y-62726961D01*
X120163218Y-62726961D02*
X120115599Y-62822200D01*
X120115599Y-62822200D02*
X120020361Y-62869819D01*
X120020361Y-62869819D02*
X119877504Y-62869819D01*
X119877504Y-62869819D02*
X119782266Y-62822200D01*
X119782266Y-62822200D02*
X119734647Y-62774580D01*
X119306075Y-62822200D02*
X119210837Y-62869819D01*
X119210837Y-62869819D02*
X119020361Y-62869819D01*
X119020361Y-62869819D02*
X118925123Y-62822200D01*
X118925123Y-62822200D02*
X118877504Y-62726961D01*
X118877504Y-62726961D02*
X118877504Y-62679342D01*
X118877504Y-62679342D02*
X118925123Y-62584104D01*
X118925123Y-62584104D02*
X119020361Y-62536485D01*
X119020361Y-62536485D02*
X119163218Y-62536485D01*
X119163218Y-62536485D02*
X119258456Y-62488866D01*
X119258456Y-62488866D02*
X119306075Y-62393628D01*
X119306075Y-62393628D02*
X119306075Y-62346009D01*
X119306075Y-62346009D02*
X119258456Y-62250771D01*
X119258456Y-62250771D02*
X119163218Y-62203152D01*
X119163218Y-62203152D02*
X119020361Y-62203152D01*
X119020361Y-62203152D02*
X118925123Y-62250771D01*
X118591789Y-62203152D02*
X118210837Y-62203152D01*
X118448932Y-61869819D02*
X118448932Y-62726961D01*
X118448932Y-62726961D02*
X118401313Y-62822200D01*
X118401313Y-62822200D02*
X118306075Y-62869819D01*
X118306075Y-62869819D02*
X118210837Y-62869819D01*
X117448932Y-62869819D02*
X117448932Y-62346009D01*
X117448932Y-62346009D02*
X117496551Y-62250771D01*
X117496551Y-62250771D02*
X117591789Y-62203152D01*
X117591789Y-62203152D02*
X117782265Y-62203152D01*
X117782265Y-62203152D02*
X117877503Y-62250771D01*
X117448932Y-62822200D02*
X117544170Y-62869819D01*
X117544170Y-62869819D02*
X117782265Y-62869819D01*
X117782265Y-62869819D02*
X117877503Y-62822200D01*
X117877503Y-62822200D02*
X117925122Y-62726961D01*
X117925122Y-62726961D02*
X117925122Y-62631723D01*
X117925122Y-62631723D02*
X117877503Y-62536485D01*
X117877503Y-62536485D02*
X117782265Y-62488866D01*
X117782265Y-62488866D02*
X117544170Y-62488866D01*
X117544170Y-62488866D02*
X117448932Y-62441247D01*
X117115598Y-62203152D02*
X116734646Y-62203152D01*
X116972741Y-61869819D02*
X116972741Y-62726961D01*
X116972741Y-62726961D02*
X116925122Y-62822200D01*
X116925122Y-62822200D02*
X116829884Y-62869819D01*
X116829884Y-62869819D02*
X116734646Y-62869819D01*
M02*
