M48
; DRILL file {KiCad 7.0.7} date Mon Oct 16 12:37:40 2023
; FORMAT={-:-/ absolute / inch / decimal}
; #@! TF.CreationDate,2023-10-16T12:37:40+02:00
; #@! TF.GenerationSoftware,Kicad,Pcbnew,7.0.7
; #@! TF.FileFunction,Plated,1,2,PTH
FMAT,2
INCH
; #@! TA.AperFunction,Plated,PTH,ComponentDrill
T1C0.0315
; #@! TA.AperFunction,Plated,PTH,ComponentDrill
T2C0.0354
; #@! TA.AperFunction,Plated,PTH,ComponentDrill
T3C0.0394
; #@! TA.AperFunction,Plated,PTH,ComponentDrill
T4C0.0400
; #@! TA.AperFunction,Plated,PTH,ComponentDrill
T5C0.0433
; #@! TA.AperFunction,Plated,PTH,ComponentDrill
T6C0.0598
%
G90
G05
T1
X4.6228Y-5.1969
X4.6228Y-5.374
X4.626Y-4.6063
X4.626Y-4.7638
X5.0228Y-5.1969
X5.0228Y-5.374
X5.026Y-4.6063
X5.026Y-4.7638
X5.2921Y-3.4055
X5.2953Y-3.563
X5.2953Y-3.9567
X5.2953Y-4.0945
X5.3693Y-4.5472
X5.3693Y-4.6472
X5.3693Y-4.7472
X5.3693Y-4.8472
X5.3693Y-4.9472
X5.3693Y-5.0472
X5.3693Y-5.1472
X5.6693Y-4.5472
X5.6693Y-4.6472
X5.6693Y-4.7472
X5.6693Y-4.8472
X5.6693Y-4.9472
X5.6693Y-5.0472
X5.6693Y-5.1472
X5.6921Y-3.4055
X5.6953Y-3.563
X5.6953Y-3.9567
X5.6953Y-4.0945
X7.0866Y-3.878
X7.0866Y-4.278
X7.0866Y-4.3929
X7.0866Y-4.7929
X7.0866Y-4.9606
X7.0866Y-5.3606
T2
X7.2835Y-3.9795
X7.2835Y-4.1764
X7.2835Y-4.3732
X7.3835Y-3.9795
X7.3835Y-4.1764
X7.3835Y-4.3732
T3
X4.6291Y-4.9803
X5.0228Y-4.9803
X5.2984Y-3.7598
X5.2984Y-4.2913
X5.3346Y-5.4134
X5.6921Y-3.7598
X5.6921Y-4.2913
X5.7283Y-5.4134
T4
X5.3087Y-2.6378
X5.3087Y-2.7378
X5.3087Y-2.8378
X5.3087Y-2.9378
X5.3087Y-3.0378
X5.3087Y-3.1378
X5.7087Y-2.6378
X5.7087Y-2.7378
X5.7087Y-2.8378
X5.7087Y-2.9378
X5.7087Y-3.0378
X5.7087Y-3.1378
T5
X4.6949Y-3.75
X4.6949Y-3.9272
X4.6949Y-4.2028
X4.6949Y-4.3799
X4.9508Y-3.75
X4.9508Y-3.9272
X4.9508Y-4.2028
X4.9508Y-4.3799
X6.1043Y-2.7386
X6.1043Y-2.8386
X6.1043Y-2.9386
X6.1043Y-3.0386
X6.1043Y-3.1386
X6.1043Y-3.2386
X6.1043Y-3.3386
X6.1043Y-3.4386
X6.1043Y-3.5386
X6.1043Y-3.6386
X6.1043Y-3.7386
X6.1043Y-3.8386
X6.1043Y-3.9386
X6.1043Y-4.0386
X6.1043Y-4.1386
X6.1043Y-4.2386
X6.1043Y-4.3386
X6.1043Y-4.4386
X6.1043Y-4.5386
X6.1043Y-4.6386
X6.1043Y-4.7386
X6.1043Y-4.8386
X6.1043Y-4.9386
X6.1043Y-5.0386
X6.2043Y-4.5386
X6.2224Y-2.9886
X6.2224Y-3.0886
X6.2224Y-3.1886
X6.2224Y-3.2886
X6.2224Y-3.3886
X6.3043Y-4.5386
X6.4043Y-4.5386
X6.5043Y-4.5386
X6.6043Y-2.8386
X6.6043Y-3.0386
X6.6043Y-3.1386
X6.6043Y-3.2386
X6.6043Y-4.5386
X6.7043Y-2.7386
X6.7043Y-2.8386
X6.7043Y-2.9386
X6.7043Y-3.0386
X6.7043Y-3.1386
X6.7043Y-3.2386
X6.7043Y-3.3386
X6.7043Y-3.4386
X6.7043Y-3.5386
X6.7043Y-3.6386
X6.7043Y-3.7386
X6.7043Y-3.8386
X6.7043Y-3.9386
X6.7043Y-4.0386
X6.7043Y-4.1386
X6.7043Y-4.2386
X6.7043Y-4.3386
X6.7043Y-4.4386
X6.7043Y-4.5386
X6.7043Y-4.6386
X6.7043Y-4.7386
X6.7043Y-4.8386
X6.7043Y-4.9386
X6.7043Y-5.0386
T6
X4.2488Y-2.7362
X4.252Y-4.4079
X4.252Y-4.6079
X4.252Y-4.9213
X4.252Y-5.1213
X4.2717Y-3.0906
X4.2717Y-3.2906
X4.2717Y-3.4906
X4.2717Y-3.6906
X4.2717Y-3.8906
X4.2717Y-4.0906
X4.4488Y-2.7362
X4.6488Y-2.7362
X4.8488Y-2.7362
X7.2835Y-2.7756
X7.2835Y-2.9756
X7.2835Y-3.1756
X7.2835Y-3.448
X7.2835Y-3.648
T3
G00X4.7972Y-3.1496
M15
G01X4.8484Y-3.1496
M16
G05
G00X4.7972Y-3.3248
M15
G01X4.8484Y-3.3248
M16
G05
G00X4.7972Y-3.5
M15
G01X4.8484Y-3.5
M16
G05
T0
M30
