%TF.GenerationSoftware,KiCad,Pcbnew,7.0.7*%
%TF.CreationDate,2023-10-16T12:37:20+02:00*%
%TF.ProjectId,kicad_pendulum_receiver1,6b696361-645f-4706-956e-64756c756d5f,rev?*%
%TF.SameCoordinates,Original*%
%TF.FileFunction,Soldermask,Bot*%
%TF.FilePolarity,Negative*%
%FSLAX46Y46*%
G04 Gerber Fmt 4.6, Leading zero omitted, Abs format (unit mm)*
G04 Created by KiCad (PCBNEW 7.0.7) date 2023-10-16 12:37:20*
%MOMM*%
%LPD*%
G01*
G04 APERTURE LIST*
G04 Aperture macros list*
%AMRoundRect*
0 Rectangle with rounded corners*
0 $1 Rounding radius*
0 $2 $3 $4 $5 $6 $7 $8 $9 X,Y pos of 4 corners*
0 Add a 4 corners polygon primitive as box body*
4,1,4,$2,$3,$4,$5,$6,$7,$8,$9,$2,$3,0*
0 Add four circle primitives for the rounded corners*
1,1,$1+$1,$2,$3*
1,1,$1+$1,$4,$5*
1,1,$1+$1,$6,$7*
1,1,$1+$1,$8,$9*
0 Add four rect primitives between the rounded corners*
20,1,$1+$1,$2,$3,$4,$5,0*
20,1,$1+$1,$4,$5,$6,$7,0*
20,1,$1+$1,$6,$7,$8,$9,0*
20,1,$1+$1,$8,$9,$2,$3,0*%
G04 Aperture macros list end*
%ADD10R,1.800000X1.800000*%
%ADD11C,1.800000*%
%ADD12C,1.600000*%
%ADD13O,1.600000X1.600000*%
%ADD14C,2.000000*%
%ADD15R,3.000000X3.000000*%
%ADD16C,3.000000*%
%ADD17C,1.728000*%
%ADD18RoundRect,0.102000X0.762000X0.762000X-0.762000X0.762000X-0.762000X-0.762000X0.762000X-0.762000X0*%
%ADD19R,1.600000X1.600000*%
%ADD20C,3.200000*%
%ADD21O,5.000000X3.200000*%
G04 APERTURE END LIST*
D10*
%TO.C,D1*%
X187540000Y-111080000D03*
D11*
X185000000Y-111080000D03*
%TD*%
D12*
%TO.C,R7*%
X117420000Y-132000000D03*
D13*
X127580000Y-132000000D03*
%TD*%
D14*
%TO.C,C1*%
X134580000Y-109000000D03*
X144580000Y-109000000D03*
%TD*%
D15*
%TO.C,J3*%
X185000000Y-80660000D03*
D16*
X185000000Y-75580000D03*
X185000000Y-70500000D03*
%TD*%
D12*
%TO.C,R3*%
X144580000Y-86500000D03*
D13*
X134420000Y-86500000D03*
%TD*%
D12*
%TO.C,R9*%
X180000000Y-126000000D03*
D13*
X180000000Y-136160000D03*
%TD*%
D12*
%TO.C,R1*%
X134500000Y-100500000D03*
D13*
X144660000Y-100500000D03*
%TD*%
D12*
%TO.C,R11*%
X180000000Y-98500000D03*
D13*
X180000000Y-108660000D03*
%TD*%
D17*
%TO.C,U2*%
X134840000Y-72080000D03*
X145000000Y-72080000D03*
X134840000Y-74620000D03*
D18*
X134840000Y-79700000D03*
D17*
X134840000Y-77160000D03*
X134840000Y-69540000D03*
X134840000Y-67000000D03*
X145000000Y-74620000D03*
D18*
X145000000Y-79700000D03*
D17*
X145000000Y-77160000D03*
X145000000Y-69540000D03*
X145000000Y-67000000D03*
%TD*%
D12*
%TO.C,R4*%
X144660000Y-90500000D03*
D13*
X134500000Y-90500000D03*
%TD*%
D15*
%TO.C,J2*%
X108500000Y-78500000D03*
D16*
X108500000Y-83580000D03*
X108500000Y-88660000D03*
X108500000Y-93740000D03*
X108500000Y-98820000D03*
X108500000Y-103900000D03*
%TD*%
D10*
%TO.C,D2*%
X187540000Y-106080000D03*
D11*
X185000000Y-106080000D03*
%TD*%
D12*
%TO.C,R8*%
X127580000Y-136500000D03*
D13*
X117420000Y-136500000D03*
%TD*%
D15*
%TO.C,J1*%
X123160000Y-69500000D03*
D16*
X118080000Y-69500000D03*
X113000000Y-69500000D03*
X107920000Y-69500000D03*
%TD*%
D14*
%TO.C,C4*%
X145500000Y-137500000D03*
X135500000Y-137500000D03*
%TD*%
D15*
%TO.C,J4*%
X185000000Y-92660000D03*
D16*
X185000000Y-87580000D03*
%TD*%
D19*
%TO.C,U1*%
X155050000Y-69560000D03*
D12*
X155050000Y-72100000D03*
X155050000Y-74640000D03*
X155050000Y-77180000D03*
X155050000Y-79720000D03*
X155050000Y-82260000D03*
X155050000Y-84800000D03*
X155050000Y-87340000D03*
X155050000Y-89880000D03*
X155050000Y-92420000D03*
X155050000Y-94960000D03*
X155050000Y-97500000D03*
X155050000Y-100040000D03*
X155050000Y-102580000D03*
X155050000Y-105120000D03*
X155050000Y-107660000D03*
X155050000Y-110200000D03*
X155050000Y-112740000D03*
X155050000Y-115280000D03*
X155050000Y-117820000D03*
X155050000Y-120360000D03*
X155050000Y-122900000D03*
X155050000Y-125440000D03*
X155050000Y-127980000D03*
X157590000Y-115280000D03*
X160130000Y-115280000D03*
X162670000Y-115280000D03*
X165210000Y-115280000D03*
X167750000Y-115280000D03*
X170290000Y-127980000D03*
X170290000Y-125440000D03*
X170290000Y-122900000D03*
X170290000Y-120360000D03*
X170290000Y-117820000D03*
X170290000Y-115280000D03*
X170290000Y-112740000D03*
X170290000Y-110200000D03*
X170290000Y-107660000D03*
X170290000Y-105120000D03*
X170290000Y-102580000D03*
X170290000Y-100040000D03*
X170290000Y-97500000D03*
X170290000Y-94960000D03*
X170290000Y-92420000D03*
X170290000Y-89880000D03*
X170290000Y-87340000D03*
X170290000Y-84800000D03*
X170290000Y-82260000D03*
X170290000Y-79720000D03*
X170290000Y-77180000D03*
X170290000Y-74640000D03*
X170290000Y-72100000D03*
X170290000Y-69560000D03*
X167750000Y-72100000D03*
X167750000Y-77180000D03*
X167750000Y-79720000D03*
X167750000Y-82260000D03*
X158050000Y-75910000D03*
X158050000Y-78450000D03*
X158050000Y-80990000D03*
X158050000Y-83530000D03*
X158050000Y-86070000D03*
%TD*%
D10*
%TO.C,D3*%
X187540000Y-101080000D03*
D11*
X185000000Y-101080000D03*
%TD*%
D15*
%TO.C,SW4*%
X108000000Y-125000000D03*
D16*
X108000000Y-130080000D03*
%TD*%
D12*
%TO.C,R2*%
X144660000Y-104000000D03*
D13*
X134500000Y-104000000D03*
%TD*%
D19*
%TO.C,U3*%
X136380000Y-115500000D03*
D13*
X136380000Y-118040000D03*
X136380000Y-120580000D03*
X136380000Y-123120000D03*
X136380000Y-125660000D03*
X136380000Y-128200000D03*
X136380000Y-130740000D03*
X144000000Y-130740000D03*
X144000000Y-128200000D03*
X144000000Y-125660000D03*
X144000000Y-123120000D03*
X144000000Y-120580000D03*
X144000000Y-118040000D03*
X144000000Y-115500000D03*
%TD*%
D14*
%TO.C,C2*%
X134580000Y-95500000D03*
X144580000Y-95500000D03*
%TD*%
D20*
%TO.C,REF\u002A\u002A*%
X100500000Y-138000000D03*
%TD*%
D12*
%TO.C,R10*%
X180000000Y-111580000D03*
D13*
X180000000Y-121740000D03*
%TD*%
D20*
%TO.C,REF\u002A\u002A*%
X100500000Y-63000000D03*
%TD*%
D15*
%TO.C,SW3*%
X108000000Y-111960000D03*
D16*
X108000000Y-117040000D03*
%TD*%
D14*
%TO.C,SW2*%
X119250000Y-95250000D03*
X125750000Y-95250000D03*
X119250000Y-99750000D03*
X125750000Y-99750000D03*
%TD*%
D21*
%TO.C,SW5*%
X122500000Y-88900000D03*
X122500000Y-84450000D03*
X122500000Y-80000000D03*
%TD*%
D20*
%TO.C,REF\u002A\u002A*%
X191000000Y-62500000D03*
%TD*%
D14*
%TO.C,SW1*%
X119250000Y-106750000D03*
X125750000Y-106750000D03*
X119250000Y-111250000D03*
X125750000Y-111250000D03*
%TD*%
D12*
%TO.C,R6*%
X117500000Y-121000000D03*
D13*
X127660000Y-121000000D03*
%TD*%
D20*
%TO.C,REF\u002A\u002A*%
X191000000Y-138000000D03*
%TD*%
D12*
%TO.C,R5*%
X127660000Y-117000000D03*
D13*
X117500000Y-117000000D03*
%TD*%
D14*
%TO.C,C3*%
X127580000Y-126500000D03*
X117580000Y-126500000D03*
%TD*%
M02*
