%TF.GenerationSoftware,KiCad,Pcbnew,7.0.7*%
%TF.CreationDate,2023-10-16T12:51:43+02:00*%
%TF.ProjectId,kicad_pendulum_sender1,6b696361-645f-4706-956e-64756c756d5f,1.0*%
%TF.SameCoordinates,Original*%
%TF.FileFunction,Legend,Top*%
%TF.FilePolarity,Positive*%
%FSLAX46Y46*%
G04 Gerber Fmt 4.6, Leading zero omitted, Abs format (unit mm)*
G04 Created by KiCad (PCBNEW 7.0.7) date 2023-10-16 12:51:43*
%MOMM*%
%LPD*%
G01*
G04 APERTURE LIST*
%ADD10C,0.150000*%
%ADD11C,0.120000*%
%ADD12C,0.100000*%
%ADD13C,0.127000*%
G04 APERTURE END LIST*
D10*
X170369819Y-80163220D02*
X169369819Y-80163220D01*
X169369819Y-80163220D02*
X169369819Y-79782268D01*
X169369819Y-79782268D02*
X169417438Y-79687030D01*
X169417438Y-79687030D02*
X169465057Y-79639411D01*
X169465057Y-79639411D02*
X169560295Y-79591792D01*
X169560295Y-79591792D02*
X169703152Y-79591792D01*
X169703152Y-79591792D02*
X169798390Y-79639411D01*
X169798390Y-79639411D02*
X169846009Y-79687030D01*
X169846009Y-79687030D02*
X169893628Y-79782268D01*
X169893628Y-79782268D02*
X169893628Y-80163220D01*
X170369819Y-79020363D02*
X170322200Y-79115601D01*
X170322200Y-79115601D02*
X170274580Y-79163220D01*
X170274580Y-79163220D02*
X170179342Y-79210839D01*
X170179342Y-79210839D02*
X169893628Y-79210839D01*
X169893628Y-79210839D02*
X169798390Y-79163220D01*
X169798390Y-79163220D02*
X169750771Y-79115601D01*
X169750771Y-79115601D02*
X169703152Y-79020363D01*
X169703152Y-79020363D02*
X169703152Y-78877506D01*
X169703152Y-78877506D02*
X169750771Y-78782268D01*
X169750771Y-78782268D02*
X169798390Y-78734649D01*
X169798390Y-78734649D02*
X169893628Y-78687030D01*
X169893628Y-78687030D02*
X170179342Y-78687030D01*
X170179342Y-78687030D02*
X170274580Y-78734649D01*
X170274580Y-78734649D02*
X170322200Y-78782268D01*
X170322200Y-78782268D02*
X170369819Y-78877506D01*
X170369819Y-78877506D02*
X170369819Y-79020363D01*
X169703152Y-78353696D02*
X170369819Y-78163220D01*
X170369819Y-78163220D02*
X169893628Y-77972744D01*
X169893628Y-77972744D02*
X170369819Y-77782268D01*
X170369819Y-77782268D02*
X169703152Y-77591792D01*
X170322200Y-76829887D02*
X170369819Y-76925125D01*
X170369819Y-76925125D02*
X170369819Y-77115601D01*
X170369819Y-77115601D02*
X170322200Y-77210839D01*
X170322200Y-77210839D02*
X170226961Y-77258458D01*
X170226961Y-77258458D02*
X169846009Y-77258458D01*
X169846009Y-77258458D02*
X169750771Y-77210839D01*
X169750771Y-77210839D02*
X169703152Y-77115601D01*
X169703152Y-77115601D02*
X169703152Y-76925125D01*
X169703152Y-76925125D02*
X169750771Y-76829887D01*
X169750771Y-76829887D02*
X169846009Y-76782268D01*
X169846009Y-76782268D02*
X169941247Y-76782268D01*
X169941247Y-76782268D02*
X170036485Y-77258458D01*
X170369819Y-76353696D02*
X169703152Y-76353696D01*
X169893628Y-76353696D02*
X169798390Y-76306077D01*
X169798390Y-76306077D02*
X169750771Y-76258458D01*
X169750771Y-76258458D02*
X169703152Y-76163220D01*
X169703152Y-76163220D02*
X169703152Y-76067982D01*
X169369819Y-74782267D02*
X169369819Y-74591791D01*
X169369819Y-74591791D02*
X169417438Y-74496553D01*
X169417438Y-74496553D02*
X169512676Y-74401315D01*
X169512676Y-74401315D02*
X169703152Y-74353696D01*
X169703152Y-74353696D02*
X170036485Y-74353696D01*
X170036485Y-74353696D02*
X170226961Y-74401315D01*
X170226961Y-74401315D02*
X170322200Y-74496553D01*
X170322200Y-74496553D02*
X170369819Y-74591791D01*
X170369819Y-74591791D02*
X170369819Y-74782267D01*
X170369819Y-74782267D02*
X170322200Y-74877505D01*
X170322200Y-74877505D02*
X170226961Y-74972743D01*
X170226961Y-74972743D02*
X170036485Y-75020362D01*
X170036485Y-75020362D02*
X169703152Y-75020362D01*
X169703152Y-75020362D02*
X169512676Y-74972743D01*
X169512676Y-74972743D02*
X169417438Y-74877505D01*
X169417438Y-74877505D02*
X169369819Y-74782267D01*
X169703152Y-73496553D02*
X170369819Y-73496553D01*
X169703152Y-73925124D02*
X170226961Y-73925124D01*
X170226961Y-73925124D02*
X170322200Y-73877505D01*
X170322200Y-73877505D02*
X170369819Y-73782267D01*
X170369819Y-73782267D02*
X170369819Y-73639410D01*
X170369819Y-73639410D02*
X170322200Y-73544172D01*
X170322200Y-73544172D02*
X170274580Y-73496553D01*
X169703152Y-73163219D02*
X169703152Y-72782267D01*
X169369819Y-73020362D02*
X170226961Y-73020362D01*
X170226961Y-73020362D02*
X170322200Y-72972743D01*
X170322200Y-72972743D02*
X170369819Y-72877505D01*
X170369819Y-72877505D02*
X170369819Y-72782267D01*
X127836779Y-82869819D02*
X127836779Y-81869819D01*
X127836779Y-82346009D02*
X128408207Y-82346009D01*
X128408207Y-82869819D02*
X128408207Y-81869819D01*
X128741541Y-81869819D02*
X129074874Y-82869819D01*
X129074874Y-82869819D02*
X129408207Y-81869819D01*
X180860588Y-73917438D02*
X180765350Y-73869819D01*
X180765350Y-73869819D02*
X180622493Y-73869819D01*
X180622493Y-73869819D02*
X180479636Y-73917438D01*
X180479636Y-73917438D02*
X180384398Y-74012676D01*
X180384398Y-74012676D02*
X180336779Y-74107914D01*
X180336779Y-74107914D02*
X180289160Y-74298390D01*
X180289160Y-74298390D02*
X180289160Y-74441247D01*
X180289160Y-74441247D02*
X180336779Y-74631723D01*
X180336779Y-74631723D02*
X180384398Y-74726961D01*
X180384398Y-74726961D02*
X180479636Y-74822200D01*
X180479636Y-74822200D02*
X180622493Y-74869819D01*
X180622493Y-74869819D02*
X180717731Y-74869819D01*
X180717731Y-74869819D02*
X180860588Y-74822200D01*
X180860588Y-74822200D02*
X180908207Y-74774580D01*
X180908207Y-74774580D02*
X180908207Y-74441247D01*
X180908207Y-74441247D02*
X180717731Y-74441247D01*
X181336779Y-74869819D02*
X181336779Y-73869819D01*
X181336779Y-73869819D02*
X181908207Y-74869819D01*
X181908207Y-74869819D02*
X181908207Y-73869819D01*
X182384398Y-74869819D02*
X182384398Y-73869819D01*
X182384398Y-73869819D02*
X182622493Y-73869819D01*
X182622493Y-73869819D02*
X182765350Y-73917438D01*
X182765350Y-73917438D02*
X182860588Y-74012676D01*
X182860588Y-74012676D02*
X182908207Y-74107914D01*
X182908207Y-74107914D02*
X182955826Y-74298390D01*
X182955826Y-74298390D02*
X182955826Y-74441247D01*
X182955826Y-74441247D02*
X182908207Y-74631723D01*
X182908207Y-74631723D02*
X182860588Y-74726961D01*
X182860588Y-74726961D02*
X182765350Y-74822200D01*
X182765350Y-74822200D02*
X182622493Y-74869819D01*
X182622493Y-74869819D02*
X182384398Y-74869819D01*
X121812969Y-106369819D02*
X121336779Y-106369819D01*
X121336779Y-106369819D02*
X121289160Y-106846009D01*
X121289160Y-106846009D02*
X121336779Y-106798390D01*
X121336779Y-106798390D02*
X121432017Y-106750771D01*
X121432017Y-106750771D02*
X121670112Y-106750771D01*
X121670112Y-106750771D02*
X121765350Y-106798390D01*
X121765350Y-106798390D02*
X121812969Y-106846009D01*
X121812969Y-106846009D02*
X121860588Y-106941247D01*
X121860588Y-106941247D02*
X121860588Y-107179342D01*
X121860588Y-107179342D02*
X121812969Y-107274580D01*
X121812969Y-107274580D02*
X121765350Y-107322200D01*
X121765350Y-107322200D02*
X121670112Y-107369819D01*
X121670112Y-107369819D02*
X121432017Y-107369819D01*
X121432017Y-107369819D02*
X121336779Y-107322200D01*
X121336779Y-107322200D02*
X121289160Y-107274580D01*
X122146303Y-106369819D02*
X122479636Y-107369819D01*
X122479636Y-107369819D02*
X122812969Y-106369819D01*
X180408207Y-93369819D02*
X180074874Y-92893628D01*
X179836779Y-93369819D02*
X179836779Y-92369819D01*
X179836779Y-92369819D02*
X180217731Y-92369819D01*
X180217731Y-92369819D02*
X180312969Y-92417438D01*
X180312969Y-92417438D02*
X180360588Y-92465057D01*
X180360588Y-92465057D02*
X180408207Y-92560295D01*
X180408207Y-92560295D02*
X180408207Y-92703152D01*
X180408207Y-92703152D02*
X180360588Y-92798390D01*
X180360588Y-92798390D02*
X180312969Y-92846009D01*
X180312969Y-92846009D02*
X180217731Y-92893628D01*
X180217731Y-92893628D02*
X179836779Y-92893628D01*
X180741541Y-92369819D02*
X181408207Y-93369819D01*
X181408207Y-92369819D02*
X180741541Y-93369819D01*
X180241541Y-78369819D02*
X180860588Y-78369819D01*
X180860588Y-78369819D02*
X180527255Y-78750771D01*
X180527255Y-78750771D02*
X180670112Y-78750771D01*
X180670112Y-78750771D02*
X180765350Y-78798390D01*
X180765350Y-78798390D02*
X180812969Y-78846009D01*
X180812969Y-78846009D02*
X180860588Y-78941247D01*
X180860588Y-78941247D02*
X180860588Y-79179342D01*
X180860588Y-79179342D02*
X180812969Y-79274580D01*
X180812969Y-79274580D02*
X180765350Y-79322200D01*
X180765350Y-79322200D02*
X180670112Y-79369819D01*
X180670112Y-79369819D02*
X180384398Y-79369819D01*
X180384398Y-79369819D02*
X180289160Y-79322200D01*
X180289160Y-79322200D02*
X180241541Y-79274580D01*
X181289160Y-79274580D02*
X181336779Y-79322200D01*
X181336779Y-79322200D02*
X181289160Y-79369819D01*
X181289160Y-79369819D02*
X181241541Y-79322200D01*
X181241541Y-79322200D02*
X181289160Y-79274580D01*
X181289160Y-79274580D02*
X181289160Y-79369819D01*
X181670112Y-78369819D02*
X182289159Y-78369819D01*
X182289159Y-78369819D02*
X181955826Y-78750771D01*
X181955826Y-78750771D02*
X182098683Y-78750771D01*
X182098683Y-78750771D02*
X182193921Y-78798390D01*
X182193921Y-78798390D02*
X182241540Y-78846009D01*
X182241540Y-78846009D02*
X182289159Y-78941247D01*
X182289159Y-78941247D02*
X182289159Y-79179342D01*
X182289159Y-79179342D02*
X182241540Y-79274580D01*
X182241540Y-79274580D02*
X182193921Y-79322200D01*
X182193921Y-79322200D02*
X182098683Y-79369819D01*
X182098683Y-79369819D02*
X181812969Y-79369819D01*
X181812969Y-79369819D02*
X181717731Y-79322200D01*
X181717731Y-79322200D02*
X181670112Y-79274580D01*
X182574874Y-78369819D02*
X182908207Y-79369819D01*
X182908207Y-79369819D02*
X183241540Y-78369819D01*
X122289160Y-97584104D02*
X122765350Y-97584104D01*
X122193922Y-97869819D02*
X122527255Y-96869819D01*
X122527255Y-96869819D02*
X122860588Y-97869819D01*
X142336779Y-134369819D02*
X142336779Y-133369819D01*
X142812969Y-133703152D02*
X142812969Y-134369819D01*
X142812969Y-133798390D02*
X142860588Y-133750771D01*
X142860588Y-133750771D02*
X142955826Y-133703152D01*
X142955826Y-133703152D02*
X143098683Y-133703152D01*
X143098683Y-133703152D02*
X143193921Y-133750771D01*
X143193921Y-133750771D02*
X143241540Y-133846009D01*
X143241540Y-133846009D02*
X143241540Y-134369819D01*
X143622493Y-133703152D02*
X143860588Y-134369819D01*
X143860588Y-134369819D02*
X144098683Y-133703152D01*
X144860588Y-134322200D02*
X144765350Y-134369819D01*
X144765350Y-134369819D02*
X144574874Y-134369819D01*
X144574874Y-134369819D02*
X144479636Y-134322200D01*
X144479636Y-134322200D02*
X144432017Y-134226961D01*
X144432017Y-134226961D02*
X144432017Y-133846009D01*
X144432017Y-133846009D02*
X144479636Y-133750771D01*
X144479636Y-133750771D02*
X144574874Y-133703152D01*
X144574874Y-133703152D02*
X144765350Y-133703152D01*
X144765350Y-133703152D02*
X144860588Y-133750771D01*
X144860588Y-133750771D02*
X144908207Y-133846009D01*
X144908207Y-133846009D02*
X144908207Y-133941247D01*
X144908207Y-133941247D02*
X144432017Y-134036485D01*
X145336779Y-134369819D02*
X145336779Y-133703152D01*
X145336779Y-133893628D02*
X145384398Y-133798390D01*
X145384398Y-133798390D02*
X145432017Y-133750771D01*
X145432017Y-133750771D02*
X145527255Y-133703152D01*
X145527255Y-133703152D02*
X145622493Y-133703152D01*
X145812970Y-133703152D02*
X146193922Y-133703152D01*
X145955827Y-133369819D02*
X145955827Y-134226961D01*
X145955827Y-134226961D02*
X146003446Y-134322200D01*
X146003446Y-134322200D02*
X146098684Y-134369819D01*
X146098684Y-134369819D02*
X146193922Y-134369819D01*
X146908208Y-134322200D02*
X146812970Y-134369819D01*
X146812970Y-134369819D02*
X146622494Y-134369819D01*
X146622494Y-134369819D02*
X146527256Y-134322200D01*
X146527256Y-134322200D02*
X146479637Y-134226961D01*
X146479637Y-134226961D02*
X146479637Y-133846009D01*
X146479637Y-133846009D02*
X146527256Y-133750771D01*
X146527256Y-133750771D02*
X146622494Y-133703152D01*
X146622494Y-133703152D02*
X146812970Y-133703152D01*
X146812970Y-133703152D02*
X146908208Y-133750771D01*
X146908208Y-133750771D02*
X146955827Y-133846009D01*
X146955827Y-133846009D02*
X146955827Y-133941247D01*
X146955827Y-133941247D02*
X146479637Y-134036485D01*
X147812970Y-134369819D02*
X147812970Y-133369819D01*
X147812970Y-134322200D02*
X147717732Y-134369819D01*
X147717732Y-134369819D02*
X147527256Y-134369819D01*
X147527256Y-134369819D02*
X147432018Y-134322200D01*
X147432018Y-134322200D02*
X147384399Y-134274580D01*
X147384399Y-134274580D02*
X147336780Y-134179342D01*
X147336780Y-134179342D02*
X147336780Y-133893628D01*
X147336780Y-133893628D02*
X147384399Y-133798390D01*
X147384399Y-133798390D02*
X147432018Y-133750771D01*
X147432018Y-133750771D02*
X147527256Y-133703152D01*
X147527256Y-133703152D02*
X147717732Y-133703152D01*
X147717732Y-133703152D02*
X147812970Y-133750771D01*
X149051066Y-134369819D02*
X149051066Y-133369819D01*
X149051066Y-133369819D02*
X149432018Y-133369819D01*
X149432018Y-133369819D02*
X149527256Y-133417438D01*
X149527256Y-133417438D02*
X149574875Y-133465057D01*
X149574875Y-133465057D02*
X149622494Y-133560295D01*
X149622494Y-133560295D02*
X149622494Y-133703152D01*
X149622494Y-133703152D02*
X149574875Y-133798390D01*
X149574875Y-133798390D02*
X149527256Y-133846009D01*
X149527256Y-133846009D02*
X149432018Y-133893628D01*
X149432018Y-133893628D02*
X149051066Y-133893628D01*
X150432018Y-134322200D02*
X150336780Y-134369819D01*
X150336780Y-134369819D02*
X150146304Y-134369819D01*
X150146304Y-134369819D02*
X150051066Y-134322200D01*
X150051066Y-134322200D02*
X150003447Y-134226961D01*
X150003447Y-134226961D02*
X150003447Y-133846009D01*
X150003447Y-133846009D02*
X150051066Y-133750771D01*
X150051066Y-133750771D02*
X150146304Y-133703152D01*
X150146304Y-133703152D02*
X150336780Y-133703152D01*
X150336780Y-133703152D02*
X150432018Y-133750771D01*
X150432018Y-133750771D02*
X150479637Y-133846009D01*
X150479637Y-133846009D02*
X150479637Y-133941247D01*
X150479637Y-133941247D02*
X150003447Y-134036485D01*
X150908209Y-133703152D02*
X150908209Y-134369819D01*
X150908209Y-133798390D02*
X150955828Y-133750771D01*
X150955828Y-133750771D02*
X151051066Y-133703152D01*
X151051066Y-133703152D02*
X151193923Y-133703152D01*
X151193923Y-133703152D02*
X151289161Y-133750771D01*
X151289161Y-133750771D02*
X151336780Y-133846009D01*
X151336780Y-133846009D02*
X151336780Y-134369819D01*
X152241542Y-134369819D02*
X152241542Y-133369819D01*
X152241542Y-134322200D02*
X152146304Y-134369819D01*
X152146304Y-134369819D02*
X151955828Y-134369819D01*
X151955828Y-134369819D02*
X151860590Y-134322200D01*
X151860590Y-134322200D02*
X151812971Y-134274580D01*
X151812971Y-134274580D02*
X151765352Y-134179342D01*
X151765352Y-134179342D02*
X151765352Y-133893628D01*
X151765352Y-133893628D02*
X151812971Y-133798390D01*
X151812971Y-133798390D02*
X151860590Y-133750771D01*
X151860590Y-133750771D02*
X151955828Y-133703152D01*
X151955828Y-133703152D02*
X152146304Y-133703152D01*
X152146304Y-133703152D02*
X152241542Y-133750771D01*
X153146304Y-133703152D02*
X153146304Y-134369819D01*
X152717733Y-133703152D02*
X152717733Y-134226961D01*
X152717733Y-134226961D02*
X152765352Y-134322200D01*
X152765352Y-134322200D02*
X152860590Y-134369819D01*
X152860590Y-134369819D02*
X153003447Y-134369819D01*
X153003447Y-134369819D02*
X153098685Y-134322200D01*
X153098685Y-134322200D02*
X153146304Y-134274580D01*
X153765352Y-134369819D02*
X153670114Y-134322200D01*
X153670114Y-134322200D02*
X153622495Y-134226961D01*
X153622495Y-134226961D02*
X153622495Y-133369819D01*
X154574876Y-133703152D02*
X154574876Y-134369819D01*
X154146305Y-133703152D02*
X154146305Y-134226961D01*
X154146305Y-134226961D02*
X154193924Y-134322200D01*
X154193924Y-134322200D02*
X154289162Y-134369819D01*
X154289162Y-134369819D02*
X154432019Y-134369819D01*
X154432019Y-134369819D02*
X154527257Y-134322200D01*
X154527257Y-134322200D02*
X154574876Y-134274580D01*
X155051067Y-134369819D02*
X155051067Y-133703152D01*
X155051067Y-133798390D02*
X155098686Y-133750771D01*
X155098686Y-133750771D02*
X155193924Y-133703152D01*
X155193924Y-133703152D02*
X155336781Y-133703152D01*
X155336781Y-133703152D02*
X155432019Y-133750771D01*
X155432019Y-133750771D02*
X155479638Y-133846009D01*
X155479638Y-133846009D02*
X155479638Y-134369819D01*
X155479638Y-133846009D02*
X155527257Y-133750771D01*
X155527257Y-133750771D02*
X155622495Y-133703152D01*
X155622495Y-133703152D02*
X155765352Y-133703152D01*
X155765352Y-133703152D02*
X155860591Y-133750771D01*
X155860591Y-133750771D02*
X155908210Y-133846009D01*
X155908210Y-133846009D02*
X155908210Y-134369819D01*
X157098686Y-134322200D02*
X157241543Y-134369819D01*
X157241543Y-134369819D02*
X157479638Y-134369819D01*
X157479638Y-134369819D02*
X157574876Y-134322200D01*
X157574876Y-134322200D02*
X157622495Y-134274580D01*
X157622495Y-134274580D02*
X157670114Y-134179342D01*
X157670114Y-134179342D02*
X157670114Y-134084104D01*
X157670114Y-134084104D02*
X157622495Y-133988866D01*
X157622495Y-133988866D02*
X157574876Y-133941247D01*
X157574876Y-133941247D02*
X157479638Y-133893628D01*
X157479638Y-133893628D02*
X157289162Y-133846009D01*
X157289162Y-133846009D02*
X157193924Y-133798390D01*
X157193924Y-133798390D02*
X157146305Y-133750771D01*
X157146305Y-133750771D02*
X157098686Y-133655533D01*
X157098686Y-133655533D02*
X157098686Y-133560295D01*
X157098686Y-133560295D02*
X157146305Y-133465057D01*
X157146305Y-133465057D02*
X157193924Y-133417438D01*
X157193924Y-133417438D02*
X157289162Y-133369819D01*
X157289162Y-133369819D02*
X157527257Y-133369819D01*
X157527257Y-133369819D02*
X157670114Y-133417438D01*
X158479638Y-134322200D02*
X158384400Y-134369819D01*
X158384400Y-134369819D02*
X158193924Y-134369819D01*
X158193924Y-134369819D02*
X158098686Y-134322200D01*
X158098686Y-134322200D02*
X158051067Y-134226961D01*
X158051067Y-134226961D02*
X158051067Y-133846009D01*
X158051067Y-133846009D02*
X158098686Y-133750771D01*
X158098686Y-133750771D02*
X158193924Y-133703152D01*
X158193924Y-133703152D02*
X158384400Y-133703152D01*
X158384400Y-133703152D02*
X158479638Y-133750771D01*
X158479638Y-133750771D02*
X158527257Y-133846009D01*
X158527257Y-133846009D02*
X158527257Y-133941247D01*
X158527257Y-133941247D02*
X158051067Y-134036485D01*
X158955829Y-133703152D02*
X158955829Y-134369819D01*
X158955829Y-133798390D02*
X159003448Y-133750771D01*
X159003448Y-133750771D02*
X159098686Y-133703152D01*
X159098686Y-133703152D02*
X159241543Y-133703152D01*
X159241543Y-133703152D02*
X159336781Y-133750771D01*
X159336781Y-133750771D02*
X159384400Y-133846009D01*
X159384400Y-133846009D02*
X159384400Y-134369819D01*
X160289162Y-134369819D02*
X160289162Y-133369819D01*
X160289162Y-134322200D02*
X160193924Y-134369819D01*
X160193924Y-134369819D02*
X160003448Y-134369819D01*
X160003448Y-134369819D02*
X159908210Y-134322200D01*
X159908210Y-134322200D02*
X159860591Y-134274580D01*
X159860591Y-134274580D02*
X159812972Y-134179342D01*
X159812972Y-134179342D02*
X159812972Y-133893628D01*
X159812972Y-133893628D02*
X159860591Y-133798390D01*
X159860591Y-133798390D02*
X159908210Y-133750771D01*
X159908210Y-133750771D02*
X160003448Y-133703152D01*
X160003448Y-133703152D02*
X160193924Y-133703152D01*
X160193924Y-133703152D02*
X160289162Y-133750771D01*
X161146305Y-134322200D02*
X161051067Y-134369819D01*
X161051067Y-134369819D02*
X160860591Y-134369819D01*
X160860591Y-134369819D02*
X160765353Y-134322200D01*
X160765353Y-134322200D02*
X160717734Y-134226961D01*
X160717734Y-134226961D02*
X160717734Y-133846009D01*
X160717734Y-133846009D02*
X160765353Y-133750771D01*
X160765353Y-133750771D02*
X160860591Y-133703152D01*
X160860591Y-133703152D02*
X161051067Y-133703152D01*
X161051067Y-133703152D02*
X161146305Y-133750771D01*
X161146305Y-133750771D02*
X161193924Y-133846009D01*
X161193924Y-133846009D02*
X161193924Y-133941247D01*
X161193924Y-133941247D02*
X160717734Y-134036485D01*
X161622496Y-134369819D02*
X161622496Y-133703152D01*
X161622496Y-133893628D02*
X161670115Y-133798390D01*
X161670115Y-133798390D02*
X161717734Y-133750771D01*
X161717734Y-133750771D02*
X161812972Y-133703152D01*
X161812972Y-133703152D02*
X161908210Y-133703152D01*
X169846009Y-97829887D02*
X169846009Y-98163220D01*
X170369819Y-98163220D02*
X169369819Y-98163220D01*
X169369819Y-98163220D02*
X169369819Y-97687030D01*
X170322200Y-96925125D02*
X170369819Y-97020363D01*
X170369819Y-97020363D02*
X170369819Y-97210839D01*
X170369819Y-97210839D02*
X170322200Y-97306077D01*
X170322200Y-97306077D02*
X170226961Y-97353696D01*
X170226961Y-97353696D02*
X169846009Y-97353696D01*
X169846009Y-97353696D02*
X169750771Y-97306077D01*
X169750771Y-97306077D02*
X169703152Y-97210839D01*
X169703152Y-97210839D02*
X169703152Y-97020363D01*
X169703152Y-97020363D02*
X169750771Y-96925125D01*
X169750771Y-96925125D02*
X169846009Y-96877506D01*
X169846009Y-96877506D02*
X169941247Y-96877506D01*
X169941247Y-96877506D02*
X170036485Y-97353696D01*
X170322200Y-96067982D02*
X170369819Y-96163220D01*
X170369819Y-96163220D02*
X170369819Y-96353696D01*
X170369819Y-96353696D02*
X170322200Y-96448934D01*
X170322200Y-96448934D02*
X170226961Y-96496553D01*
X170226961Y-96496553D02*
X169846009Y-96496553D01*
X169846009Y-96496553D02*
X169750771Y-96448934D01*
X169750771Y-96448934D02*
X169703152Y-96353696D01*
X169703152Y-96353696D02*
X169703152Y-96163220D01*
X169703152Y-96163220D02*
X169750771Y-96067982D01*
X169750771Y-96067982D02*
X169846009Y-96020363D01*
X169846009Y-96020363D02*
X169941247Y-96020363D01*
X169941247Y-96020363D02*
X170036485Y-96496553D01*
X170369819Y-95163220D02*
X169369819Y-95163220D01*
X170322200Y-95163220D02*
X170369819Y-95258458D01*
X170369819Y-95258458D02*
X170369819Y-95448934D01*
X170369819Y-95448934D02*
X170322200Y-95544172D01*
X170322200Y-95544172D02*
X170274580Y-95591791D01*
X170274580Y-95591791D02*
X170179342Y-95639410D01*
X170179342Y-95639410D02*
X169893628Y-95639410D01*
X169893628Y-95639410D02*
X169798390Y-95591791D01*
X169798390Y-95591791D02*
X169750771Y-95544172D01*
X169750771Y-95544172D02*
X169703152Y-95448934D01*
X169703152Y-95448934D02*
X169703152Y-95258458D01*
X169703152Y-95258458D02*
X169750771Y-95163220D01*
X170369819Y-94687029D02*
X169369819Y-94687029D01*
X169750771Y-94687029D02*
X169703152Y-94591791D01*
X169703152Y-94591791D02*
X169703152Y-94401315D01*
X169703152Y-94401315D02*
X169750771Y-94306077D01*
X169750771Y-94306077D02*
X169798390Y-94258458D01*
X169798390Y-94258458D02*
X169893628Y-94210839D01*
X169893628Y-94210839D02*
X170179342Y-94210839D01*
X170179342Y-94210839D02*
X170274580Y-94258458D01*
X170274580Y-94258458D02*
X170322200Y-94306077D01*
X170322200Y-94306077D02*
X170369819Y-94401315D01*
X170369819Y-94401315D02*
X170369819Y-94591791D01*
X170369819Y-94591791D02*
X170322200Y-94687029D01*
X170369819Y-93353696D02*
X169846009Y-93353696D01*
X169846009Y-93353696D02*
X169750771Y-93401315D01*
X169750771Y-93401315D02*
X169703152Y-93496553D01*
X169703152Y-93496553D02*
X169703152Y-93687029D01*
X169703152Y-93687029D02*
X169750771Y-93782267D01*
X170322200Y-93353696D02*
X170369819Y-93448934D01*
X170369819Y-93448934D02*
X170369819Y-93687029D01*
X170369819Y-93687029D02*
X170322200Y-93782267D01*
X170322200Y-93782267D02*
X170226961Y-93829886D01*
X170226961Y-93829886D02*
X170131723Y-93829886D01*
X170131723Y-93829886D02*
X170036485Y-93782267D01*
X170036485Y-93782267D02*
X169988866Y-93687029D01*
X169988866Y-93687029D02*
X169988866Y-93448934D01*
X169988866Y-93448934D02*
X169941247Y-93353696D01*
X170322200Y-92448934D02*
X170369819Y-92544172D01*
X170369819Y-92544172D02*
X170369819Y-92734648D01*
X170369819Y-92734648D02*
X170322200Y-92829886D01*
X170322200Y-92829886D02*
X170274580Y-92877505D01*
X170274580Y-92877505D02*
X170179342Y-92925124D01*
X170179342Y-92925124D02*
X169893628Y-92925124D01*
X169893628Y-92925124D02*
X169798390Y-92877505D01*
X169798390Y-92877505D02*
X169750771Y-92829886D01*
X169750771Y-92829886D02*
X169703152Y-92734648D01*
X169703152Y-92734648D02*
X169703152Y-92544172D01*
X169703152Y-92544172D02*
X169750771Y-92448934D01*
X170369819Y-92020362D02*
X169369819Y-92020362D01*
X169988866Y-91925124D02*
X170369819Y-91639410D01*
X169703152Y-91639410D02*
X170084104Y-92020362D01*
X170369819Y-89972743D02*
X170369819Y-90448933D01*
X170369819Y-90448933D02*
X169369819Y-90448933D01*
X170369819Y-89639409D02*
X169703152Y-89639409D01*
X169369819Y-89639409D02*
X169417438Y-89687028D01*
X169417438Y-89687028D02*
X169465057Y-89639409D01*
X169465057Y-89639409D02*
X169417438Y-89591790D01*
X169417438Y-89591790D02*
X169369819Y-89639409D01*
X169369819Y-89639409D02*
X169465057Y-89639409D01*
X169703152Y-89163219D02*
X170369819Y-89163219D01*
X169798390Y-89163219D02*
X169750771Y-89115600D01*
X169750771Y-89115600D02*
X169703152Y-89020362D01*
X169703152Y-89020362D02*
X169703152Y-88877505D01*
X169703152Y-88877505D02*
X169750771Y-88782267D01*
X169750771Y-88782267D02*
X169846009Y-88734648D01*
X169846009Y-88734648D02*
X170369819Y-88734648D01*
X170369819Y-88258457D02*
X169369819Y-88258457D01*
X169988866Y-88163219D02*
X170369819Y-87877505D01*
X169703152Y-87877505D02*
X170084104Y-88258457D01*
X122670112Y-101846009D02*
X122812969Y-101893628D01*
X122812969Y-101893628D02*
X122860588Y-101941247D01*
X122860588Y-101941247D02*
X122908207Y-102036485D01*
X122908207Y-102036485D02*
X122908207Y-102179342D01*
X122908207Y-102179342D02*
X122860588Y-102274580D01*
X122860588Y-102274580D02*
X122812969Y-102322200D01*
X122812969Y-102322200D02*
X122717731Y-102369819D01*
X122717731Y-102369819D02*
X122336779Y-102369819D01*
X122336779Y-102369819D02*
X122336779Y-101369819D01*
X122336779Y-101369819D02*
X122670112Y-101369819D01*
X122670112Y-101369819D02*
X122765350Y-101417438D01*
X122765350Y-101417438D02*
X122812969Y-101465057D01*
X122812969Y-101465057D02*
X122860588Y-101560295D01*
X122860588Y-101560295D02*
X122860588Y-101655533D01*
X122860588Y-101655533D02*
X122812969Y-101750771D01*
X122812969Y-101750771D02*
X122765350Y-101798390D01*
X122765350Y-101798390D02*
X122670112Y-101846009D01*
X122670112Y-101846009D02*
X122336779Y-101846009D01*
X179693922Y-97369819D02*
X180265350Y-97369819D01*
X179979636Y-98369819D02*
X179979636Y-97369819D01*
X180503446Y-97369819D02*
X181170112Y-98369819D01*
X181170112Y-97369819D02*
X180503446Y-98369819D01*
X133312969Y-82869819D02*
X132836779Y-82869819D01*
X132836779Y-82869819D02*
X132836779Y-81869819D01*
X133503446Y-81869819D02*
X133836779Y-82869819D01*
X133836779Y-82869819D02*
X134170112Y-81869819D01*
X120860588Y-111917438D02*
X120765350Y-111869819D01*
X120765350Y-111869819D02*
X120622493Y-111869819D01*
X120622493Y-111869819D02*
X120479636Y-111917438D01*
X120479636Y-111917438D02*
X120384398Y-112012676D01*
X120384398Y-112012676D02*
X120336779Y-112107914D01*
X120336779Y-112107914D02*
X120289160Y-112298390D01*
X120289160Y-112298390D02*
X120289160Y-112441247D01*
X120289160Y-112441247D02*
X120336779Y-112631723D01*
X120336779Y-112631723D02*
X120384398Y-112726961D01*
X120384398Y-112726961D02*
X120479636Y-112822200D01*
X120479636Y-112822200D02*
X120622493Y-112869819D01*
X120622493Y-112869819D02*
X120717731Y-112869819D01*
X120717731Y-112869819D02*
X120860588Y-112822200D01*
X120860588Y-112822200D02*
X120908207Y-112774580D01*
X120908207Y-112774580D02*
X120908207Y-112441247D01*
X120908207Y-112441247D02*
X120717731Y-112441247D01*
X121336779Y-112869819D02*
X121336779Y-111869819D01*
X121336779Y-111869819D02*
X121908207Y-112869819D01*
X121908207Y-112869819D02*
X121908207Y-111869819D01*
X122384398Y-112869819D02*
X122384398Y-111869819D01*
X122384398Y-111869819D02*
X122622493Y-111869819D01*
X122622493Y-111869819D02*
X122765350Y-111917438D01*
X122765350Y-111917438D02*
X122860588Y-112012676D01*
X122860588Y-112012676D02*
X122908207Y-112107914D01*
X122908207Y-112107914D02*
X122955826Y-112298390D01*
X122955826Y-112298390D02*
X122955826Y-112441247D01*
X122955826Y-112441247D02*
X122908207Y-112631723D01*
X122908207Y-112631723D02*
X122860588Y-112726961D01*
X122860588Y-112726961D02*
X122765350Y-112822200D01*
X122765350Y-112822200D02*
X122622493Y-112869819D01*
X122622493Y-112869819D02*
X122384398Y-112869819D01*
X180360588Y-86917438D02*
X180265350Y-86869819D01*
X180265350Y-86869819D02*
X180122493Y-86869819D01*
X180122493Y-86869819D02*
X179979636Y-86917438D01*
X179979636Y-86917438D02*
X179884398Y-87012676D01*
X179884398Y-87012676D02*
X179836779Y-87107914D01*
X179836779Y-87107914D02*
X179789160Y-87298390D01*
X179789160Y-87298390D02*
X179789160Y-87441247D01*
X179789160Y-87441247D02*
X179836779Y-87631723D01*
X179836779Y-87631723D02*
X179884398Y-87726961D01*
X179884398Y-87726961D02*
X179979636Y-87822200D01*
X179979636Y-87822200D02*
X180122493Y-87869819D01*
X180122493Y-87869819D02*
X180217731Y-87869819D01*
X180217731Y-87869819D02*
X180360588Y-87822200D01*
X180360588Y-87822200D02*
X180408207Y-87774580D01*
X180408207Y-87774580D02*
X180408207Y-87441247D01*
X180408207Y-87441247D02*
X180217731Y-87441247D01*
X180836779Y-87869819D02*
X180836779Y-86869819D01*
X180836779Y-86869819D02*
X181408207Y-87869819D01*
X181408207Y-87869819D02*
X181408207Y-86869819D01*
X181884398Y-87869819D02*
X181884398Y-86869819D01*
X181884398Y-86869819D02*
X182122493Y-86869819D01*
X182122493Y-86869819D02*
X182265350Y-86917438D01*
X182265350Y-86917438D02*
X182360588Y-87012676D01*
X182360588Y-87012676D02*
X182408207Y-87107914D01*
X182408207Y-87107914D02*
X182455826Y-87298390D01*
X182455826Y-87298390D02*
X182455826Y-87441247D01*
X182455826Y-87441247D02*
X182408207Y-87631723D01*
X182408207Y-87631723D02*
X182360588Y-87726961D01*
X182360588Y-87726961D02*
X182265350Y-87822200D01*
X182265350Y-87822200D02*
X182122493Y-87869819D01*
X182122493Y-87869819D02*
X181884398Y-87869819D01*
X149193922Y-107369819D02*
X149765350Y-107369819D01*
X149479636Y-108369819D02*
X149479636Y-107369819D01*
X150479636Y-108322200D02*
X150384398Y-108369819D01*
X150384398Y-108369819D02*
X150193922Y-108369819D01*
X150193922Y-108369819D02*
X150098684Y-108322200D01*
X150098684Y-108322200D02*
X150051065Y-108226961D01*
X150051065Y-108226961D02*
X150051065Y-107846009D01*
X150051065Y-107846009D02*
X150098684Y-107750771D01*
X150098684Y-107750771D02*
X150193922Y-107703152D01*
X150193922Y-107703152D02*
X150384398Y-107703152D01*
X150384398Y-107703152D02*
X150479636Y-107750771D01*
X150479636Y-107750771D02*
X150527255Y-107846009D01*
X150527255Y-107846009D02*
X150527255Y-107941247D01*
X150527255Y-107941247D02*
X150051065Y-108036485D01*
X151336779Y-108322200D02*
X151241541Y-108369819D01*
X151241541Y-108369819D02*
X151051065Y-108369819D01*
X151051065Y-108369819D02*
X150955827Y-108322200D01*
X150955827Y-108322200D02*
X150908208Y-108226961D01*
X150908208Y-108226961D02*
X150908208Y-107846009D01*
X150908208Y-107846009D02*
X150955827Y-107750771D01*
X150955827Y-107750771D02*
X151051065Y-107703152D01*
X151051065Y-107703152D02*
X151241541Y-107703152D01*
X151241541Y-107703152D02*
X151336779Y-107750771D01*
X151336779Y-107750771D02*
X151384398Y-107846009D01*
X151384398Y-107846009D02*
X151384398Y-107941247D01*
X151384398Y-107941247D02*
X150908208Y-108036485D01*
X151812970Y-107703152D02*
X151812970Y-108369819D01*
X151812970Y-107798390D02*
X151860589Y-107750771D01*
X151860589Y-107750771D02*
X151955827Y-107703152D01*
X151955827Y-107703152D02*
X152098684Y-107703152D01*
X152098684Y-107703152D02*
X152193922Y-107750771D01*
X152193922Y-107750771D02*
X152241541Y-107846009D01*
X152241541Y-107846009D02*
X152241541Y-108369819D01*
X152670113Y-108322200D02*
X152765351Y-108369819D01*
X152765351Y-108369819D02*
X152955827Y-108369819D01*
X152955827Y-108369819D02*
X153051065Y-108322200D01*
X153051065Y-108322200D02*
X153098684Y-108226961D01*
X153098684Y-108226961D02*
X153098684Y-108179342D01*
X153098684Y-108179342D02*
X153051065Y-108084104D01*
X153051065Y-108084104D02*
X152955827Y-108036485D01*
X152955827Y-108036485D02*
X152812970Y-108036485D01*
X152812970Y-108036485D02*
X152717732Y-107988866D01*
X152717732Y-107988866D02*
X152670113Y-107893628D01*
X152670113Y-107893628D02*
X152670113Y-107846009D01*
X152670113Y-107846009D02*
X152717732Y-107750771D01*
X152717732Y-107750771D02*
X152812970Y-107703152D01*
X152812970Y-107703152D02*
X152955827Y-107703152D01*
X152955827Y-107703152D02*
X153051065Y-107750771D01*
X153432018Y-107703152D02*
X153670113Y-108369819D01*
X153908208Y-107703152D02*
X153670113Y-108369819D01*
X153670113Y-108369819D02*
X153574875Y-108607914D01*
X153574875Y-108607914D02*
X153527256Y-108655533D01*
X153527256Y-108655533D02*
X153432018Y-108703152D01*
X155479637Y-107703152D02*
X155479637Y-108369819D01*
X155241542Y-107322200D02*
X155003447Y-108036485D01*
X155003447Y-108036485D02*
X155622494Y-108036485D01*
X156003447Y-108274580D02*
X156051066Y-108322200D01*
X156051066Y-108322200D02*
X156003447Y-108369819D01*
X156003447Y-108369819D02*
X155955828Y-108322200D01*
X155955828Y-108322200D02*
X156003447Y-108274580D01*
X156003447Y-108274580D02*
X156003447Y-108369819D01*
X157003446Y-108369819D02*
X156432018Y-108369819D01*
X156717732Y-108369819D02*
X156717732Y-107369819D01*
X156717732Y-107369819D02*
X156622494Y-107512676D01*
X156622494Y-107512676D02*
X156527256Y-107607914D01*
X156527256Y-107607914D02*
X156432018Y-107655533D01*
X134369819Y-110591792D02*
X133893628Y-110925125D01*
X134369819Y-111163220D02*
X133369819Y-111163220D01*
X133369819Y-111163220D02*
X133369819Y-110782268D01*
X133369819Y-110782268D02*
X133417438Y-110687030D01*
X133417438Y-110687030D02*
X133465057Y-110639411D01*
X133465057Y-110639411D02*
X133560295Y-110591792D01*
X133560295Y-110591792D02*
X133703152Y-110591792D01*
X133703152Y-110591792D02*
X133798390Y-110639411D01*
X133798390Y-110639411D02*
X133846009Y-110687030D01*
X133846009Y-110687030D02*
X133893628Y-110782268D01*
X133893628Y-110782268D02*
X133893628Y-111163220D01*
X134369819Y-110020363D02*
X134322200Y-110115601D01*
X134322200Y-110115601D02*
X134274580Y-110163220D01*
X134274580Y-110163220D02*
X134179342Y-110210839D01*
X134179342Y-110210839D02*
X133893628Y-110210839D01*
X133893628Y-110210839D02*
X133798390Y-110163220D01*
X133798390Y-110163220D02*
X133750771Y-110115601D01*
X133750771Y-110115601D02*
X133703152Y-110020363D01*
X133703152Y-110020363D02*
X133703152Y-109877506D01*
X133703152Y-109877506D02*
X133750771Y-109782268D01*
X133750771Y-109782268D02*
X133798390Y-109734649D01*
X133798390Y-109734649D02*
X133893628Y-109687030D01*
X133893628Y-109687030D02*
X134179342Y-109687030D01*
X134179342Y-109687030D02*
X134274580Y-109734649D01*
X134274580Y-109734649D02*
X134322200Y-109782268D01*
X134322200Y-109782268D02*
X134369819Y-109877506D01*
X134369819Y-109877506D02*
X134369819Y-110020363D01*
X133703152Y-109401315D02*
X133703152Y-109020363D01*
X133369819Y-109258458D02*
X134226961Y-109258458D01*
X134226961Y-109258458D02*
X134322200Y-109210839D01*
X134322200Y-109210839D02*
X134369819Y-109115601D01*
X134369819Y-109115601D02*
X134369819Y-109020363D01*
X134369819Y-108258458D02*
X133846009Y-108258458D01*
X133846009Y-108258458D02*
X133750771Y-108306077D01*
X133750771Y-108306077D02*
X133703152Y-108401315D01*
X133703152Y-108401315D02*
X133703152Y-108591791D01*
X133703152Y-108591791D02*
X133750771Y-108687029D01*
X134322200Y-108258458D02*
X134369819Y-108353696D01*
X134369819Y-108353696D02*
X134369819Y-108591791D01*
X134369819Y-108591791D02*
X134322200Y-108687029D01*
X134322200Y-108687029D02*
X134226961Y-108734648D01*
X134226961Y-108734648D02*
X134131723Y-108734648D01*
X134131723Y-108734648D02*
X134036485Y-108687029D01*
X134036485Y-108687029D02*
X133988866Y-108591791D01*
X133988866Y-108591791D02*
X133988866Y-108353696D01*
X133988866Y-108353696D02*
X133941247Y-108258458D01*
X134369819Y-107782267D02*
X133703152Y-107782267D01*
X133893628Y-107782267D02*
X133798390Y-107734648D01*
X133798390Y-107734648D02*
X133750771Y-107687029D01*
X133750771Y-107687029D02*
X133703152Y-107591791D01*
X133703152Y-107591791D02*
X133703152Y-107496553D01*
X133703152Y-107258457D02*
X134369819Y-107020362D01*
X133703152Y-106782267D02*
X134369819Y-107020362D01*
X134369819Y-107020362D02*
X134607914Y-107115600D01*
X134607914Y-107115600D02*
X134655533Y-107163219D01*
X134655533Y-107163219D02*
X134703152Y-107258457D01*
X133846009Y-105639409D02*
X133846009Y-105306076D01*
X134369819Y-105163219D02*
X134369819Y-105639409D01*
X134369819Y-105639409D02*
X133369819Y-105639409D01*
X133369819Y-105639409D02*
X133369819Y-105163219D01*
X133703152Y-104734647D02*
X134369819Y-104734647D01*
X133798390Y-104734647D02*
X133750771Y-104687028D01*
X133750771Y-104687028D02*
X133703152Y-104591790D01*
X133703152Y-104591790D02*
X133703152Y-104448933D01*
X133703152Y-104448933D02*
X133750771Y-104353695D01*
X133750771Y-104353695D02*
X133846009Y-104306076D01*
X133846009Y-104306076D02*
X134369819Y-104306076D01*
X134322200Y-103401314D02*
X134369819Y-103496552D01*
X134369819Y-103496552D02*
X134369819Y-103687028D01*
X134369819Y-103687028D02*
X134322200Y-103782266D01*
X134322200Y-103782266D02*
X134274580Y-103829885D01*
X134274580Y-103829885D02*
X134179342Y-103877504D01*
X134179342Y-103877504D02*
X133893628Y-103877504D01*
X133893628Y-103877504D02*
X133798390Y-103829885D01*
X133798390Y-103829885D02*
X133750771Y-103782266D01*
X133750771Y-103782266D02*
X133703152Y-103687028D01*
X133703152Y-103687028D02*
X133703152Y-103496552D01*
X133703152Y-103496552D02*
X133750771Y-103401314D01*
X134369819Y-102829885D02*
X134322200Y-102925123D01*
X134322200Y-102925123D02*
X134274580Y-102972742D01*
X134274580Y-102972742D02*
X134179342Y-103020361D01*
X134179342Y-103020361D02*
X133893628Y-103020361D01*
X133893628Y-103020361D02*
X133798390Y-102972742D01*
X133798390Y-102972742D02*
X133750771Y-102925123D01*
X133750771Y-102925123D02*
X133703152Y-102829885D01*
X133703152Y-102829885D02*
X133703152Y-102687028D01*
X133703152Y-102687028D02*
X133750771Y-102591790D01*
X133750771Y-102591790D02*
X133798390Y-102544171D01*
X133798390Y-102544171D02*
X133893628Y-102496552D01*
X133893628Y-102496552D02*
X134179342Y-102496552D01*
X134179342Y-102496552D02*
X134274580Y-102544171D01*
X134274580Y-102544171D02*
X134322200Y-102591790D01*
X134322200Y-102591790D02*
X134369819Y-102687028D01*
X134369819Y-102687028D02*
X134369819Y-102829885D01*
X134369819Y-101639409D02*
X133369819Y-101639409D01*
X134322200Y-101639409D02*
X134369819Y-101734647D01*
X134369819Y-101734647D02*
X134369819Y-101925123D01*
X134369819Y-101925123D02*
X134322200Y-102020361D01*
X134322200Y-102020361D02*
X134274580Y-102067980D01*
X134274580Y-102067980D02*
X134179342Y-102115599D01*
X134179342Y-102115599D02*
X133893628Y-102115599D01*
X133893628Y-102115599D02*
X133798390Y-102067980D01*
X133798390Y-102067980D02*
X133750771Y-102020361D01*
X133750771Y-102020361D02*
X133703152Y-101925123D01*
X133703152Y-101925123D02*
X133703152Y-101734647D01*
X133703152Y-101734647D02*
X133750771Y-101639409D01*
X134322200Y-100782266D02*
X134369819Y-100877504D01*
X134369819Y-100877504D02*
X134369819Y-101067980D01*
X134369819Y-101067980D02*
X134322200Y-101163218D01*
X134322200Y-101163218D02*
X134226961Y-101210837D01*
X134226961Y-101210837D02*
X133846009Y-101210837D01*
X133846009Y-101210837D02*
X133750771Y-101163218D01*
X133750771Y-101163218D02*
X133703152Y-101067980D01*
X133703152Y-101067980D02*
X133703152Y-100877504D01*
X133703152Y-100877504D02*
X133750771Y-100782266D01*
X133750771Y-100782266D02*
X133846009Y-100734647D01*
X133846009Y-100734647D02*
X133941247Y-100734647D01*
X133941247Y-100734647D02*
X134036485Y-101210837D01*
X134369819Y-100306075D02*
X133703152Y-100306075D01*
X133893628Y-100306075D02*
X133798390Y-100258456D01*
X133798390Y-100258456D02*
X133750771Y-100210837D01*
X133750771Y-100210837D02*
X133703152Y-100115599D01*
X133703152Y-100115599D02*
X133703152Y-100020361D01*
X124454819Y-93333333D02*
X125169104Y-93333333D01*
X125169104Y-93333333D02*
X125311961Y-93380952D01*
X125311961Y-93380952D02*
X125407200Y-93476190D01*
X125407200Y-93476190D02*
X125454819Y-93619047D01*
X125454819Y-93619047D02*
X125454819Y-93714285D01*
X125454819Y-92333333D02*
X125454819Y-92904761D01*
X125454819Y-92619047D02*
X124454819Y-92619047D01*
X124454819Y-92619047D02*
X124597676Y-92714285D01*
X124597676Y-92714285D02*
X124692914Y-92809523D01*
X124692914Y-92809523D02*
X124740533Y-92904761D01*
X173859580Y-124474266D02*
X173907200Y-124521885D01*
X173907200Y-124521885D02*
X173954819Y-124664742D01*
X173954819Y-124664742D02*
X173954819Y-124759980D01*
X173954819Y-124759980D02*
X173907200Y-124902837D01*
X173907200Y-124902837D02*
X173811961Y-124998075D01*
X173811961Y-124998075D02*
X173716723Y-125045694D01*
X173716723Y-125045694D02*
X173526247Y-125093313D01*
X173526247Y-125093313D02*
X173383390Y-125093313D01*
X173383390Y-125093313D02*
X173192914Y-125045694D01*
X173192914Y-125045694D02*
X173097676Y-124998075D01*
X173097676Y-124998075D02*
X173002438Y-124902837D01*
X173002438Y-124902837D02*
X172954819Y-124759980D01*
X172954819Y-124759980D02*
X172954819Y-124664742D01*
X172954819Y-124664742D02*
X173002438Y-124521885D01*
X173002438Y-124521885D02*
X173050057Y-124474266D01*
X173954819Y-123521885D02*
X173954819Y-124093313D01*
X173954819Y-123807599D02*
X172954819Y-123807599D01*
X172954819Y-123807599D02*
X173097676Y-123902837D01*
X173097676Y-123902837D02*
X173192914Y-123998075D01*
X173192914Y-123998075D02*
X173240533Y-124093313D01*
X171666667Y-115657200D02*
X171809524Y-115704819D01*
X171809524Y-115704819D02*
X172047619Y-115704819D01*
X172047619Y-115704819D02*
X172142857Y-115657200D01*
X172142857Y-115657200D02*
X172190476Y-115609580D01*
X172190476Y-115609580D02*
X172238095Y-115514342D01*
X172238095Y-115514342D02*
X172238095Y-115419104D01*
X172238095Y-115419104D02*
X172190476Y-115323866D01*
X172190476Y-115323866D02*
X172142857Y-115276247D01*
X172142857Y-115276247D02*
X172047619Y-115228628D01*
X172047619Y-115228628D02*
X171857143Y-115181009D01*
X171857143Y-115181009D02*
X171761905Y-115133390D01*
X171761905Y-115133390D02*
X171714286Y-115085771D01*
X171714286Y-115085771D02*
X171666667Y-114990533D01*
X171666667Y-114990533D02*
X171666667Y-114895295D01*
X171666667Y-114895295D02*
X171714286Y-114800057D01*
X171714286Y-114800057D02*
X171761905Y-114752438D01*
X171761905Y-114752438D02*
X171857143Y-114704819D01*
X171857143Y-114704819D02*
X172095238Y-114704819D01*
X172095238Y-114704819D02*
X172238095Y-114752438D01*
X172571429Y-114704819D02*
X172809524Y-115704819D01*
X172809524Y-115704819D02*
X173000000Y-114990533D01*
X173000000Y-114990533D02*
X173190476Y-115704819D01*
X173190476Y-115704819D02*
X173428572Y-114704819D01*
X174333333Y-115704819D02*
X173761905Y-115704819D01*
X174047619Y-115704819D02*
X174047619Y-114704819D01*
X174047619Y-114704819D02*
X173952381Y-114847676D01*
X173952381Y-114847676D02*
X173857143Y-114942914D01*
X173857143Y-114942914D02*
X173761905Y-114990533D01*
X174454819Y-70833333D02*
X175169104Y-70833333D01*
X175169104Y-70833333D02*
X175311961Y-70880952D01*
X175311961Y-70880952D02*
X175407200Y-70976190D01*
X175407200Y-70976190D02*
X175454819Y-71119047D01*
X175454819Y-71119047D02*
X175454819Y-71214285D01*
X174454819Y-70452380D02*
X174454819Y-69833333D01*
X174454819Y-69833333D02*
X174835771Y-70166666D01*
X174835771Y-70166666D02*
X174835771Y-70023809D01*
X174835771Y-70023809D02*
X174883390Y-69928571D01*
X174883390Y-69928571D02*
X174931009Y-69880952D01*
X174931009Y-69880952D02*
X175026247Y-69833333D01*
X175026247Y-69833333D02*
X175264342Y-69833333D01*
X175264342Y-69833333D02*
X175359580Y-69880952D01*
X175359580Y-69880952D02*
X175407200Y-69928571D01*
X175407200Y-69928571D02*
X175454819Y-70023809D01*
X175454819Y-70023809D02*
X175454819Y-70309523D01*
X175454819Y-70309523D02*
X175407200Y-70404761D01*
X175407200Y-70404761D02*
X175359580Y-70452380D01*
X167604419Y-124169466D02*
X167128228Y-124502799D01*
X167604419Y-124740894D02*
X166604419Y-124740894D01*
X166604419Y-124740894D02*
X166604419Y-124359942D01*
X166604419Y-124359942D02*
X166652038Y-124264704D01*
X166652038Y-124264704D02*
X166699657Y-124217085D01*
X166699657Y-124217085D02*
X166794895Y-124169466D01*
X166794895Y-124169466D02*
X166937752Y-124169466D01*
X166937752Y-124169466D02*
X167032990Y-124217085D01*
X167032990Y-124217085D02*
X167080609Y-124264704D01*
X167080609Y-124264704D02*
X167128228Y-124359942D01*
X167128228Y-124359942D02*
X167128228Y-124740894D01*
X166699657Y-123788513D02*
X166652038Y-123740894D01*
X166652038Y-123740894D02*
X166604419Y-123645656D01*
X166604419Y-123645656D02*
X166604419Y-123407561D01*
X166604419Y-123407561D02*
X166652038Y-123312323D01*
X166652038Y-123312323D02*
X166699657Y-123264704D01*
X166699657Y-123264704D02*
X166794895Y-123217085D01*
X166794895Y-123217085D02*
X166890133Y-123217085D01*
X166890133Y-123217085D02*
X167032990Y-123264704D01*
X167032990Y-123264704D02*
X167604419Y-123836132D01*
X167604419Y-123836132D02*
X167604419Y-123217085D01*
X131414819Y-120008094D02*
X130414819Y-120008094D01*
X130414819Y-120008094D02*
X130414819Y-119769999D01*
X130414819Y-119769999D02*
X130462438Y-119627142D01*
X130462438Y-119627142D02*
X130557676Y-119531904D01*
X130557676Y-119531904D02*
X130652914Y-119484285D01*
X130652914Y-119484285D02*
X130843390Y-119436666D01*
X130843390Y-119436666D02*
X130986247Y-119436666D01*
X130986247Y-119436666D02*
X131176723Y-119484285D01*
X131176723Y-119484285D02*
X131271961Y-119531904D01*
X131271961Y-119531904D02*
X131367200Y-119627142D01*
X131367200Y-119627142D02*
X131414819Y-119769999D01*
X131414819Y-119769999D02*
X131414819Y-120008094D01*
X131414819Y-118484285D02*
X131414819Y-119055713D01*
X131414819Y-118769999D02*
X130414819Y-118769999D01*
X130414819Y-118769999D02*
X130557676Y-118865237D01*
X130557676Y-118865237D02*
X130652914Y-118960475D01*
X130652914Y-118960475D02*
X130700533Y-119055713D01*
X162929219Y-101142704D02*
X163738742Y-101142704D01*
X163738742Y-101142704D02*
X163833980Y-101095085D01*
X163833980Y-101095085D02*
X163881600Y-101047466D01*
X163881600Y-101047466D02*
X163929219Y-100952228D01*
X163929219Y-100952228D02*
X163929219Y-100761752D01*
X163929219Y-100761752D02*
X163881600Y-100666514D01*
X163881600Y-100666514D02*
X163833980Y-100618895D01*
X163833980Y-100618895D02*
X163738742Y-100571276D01*
X163738742Y-100571276D02*
X162929219Y-100571276D01*
X163929219Y-99571276D02*
X163929219Y-100142704D01*
X163929219Y-99856990D02*
X162929219Y-99856990D01*
X162929219Y-99856990D02*
X163072076Y-99952228D01*
X163072076Y-99952228D02*
X163167314Y-100047466D01*
X163167314Y-100047466D02*
X163214933Y-100142704D01*
X150231066Y-99426833D02*
X150231066Y-98726833D01*
X150231066Y-98726833D02*
X150464400Y-99226833D01*
X150464400Y-99226833D02*
X150697733Y-98726833D01*
X150697733Y-98726833D02*
X150697733Y-99426833D01*
X151031066Y-99426833D02*
X151031066Y-98726833D01*
X151364399Y-99426833D02*
X151364399Y-98726833D01*
X151364399Y-98726833D02*
X151597733Y-99226833D01*
X151597733Y-99226833D02*
X151831066Y-98726833D01*
X151831066Y-98726833D02*
X151831066Y-99426833D01*
X152097733Y-98726833D02*
X152564399Y-99426833D01*
X152564399Y-98726833D02*
X152097733Y-99426833D01*
X153231066Y-99426833D02*
X152997733Y-99093500D01*
X152831066Y-99426833D02*
X152831066Y-98726833D01*
X152831066Y-98726833D02*
X153097733Y-98726833D01*
X153097733Y-98726833D02*
X153164400Y-98760166D01*
X153164400Y-98760166D02*
X153197733Y-98793500D01*
X153197733Y-98793500D02*
X153231066Y-98860166D01*
X153231066Y-98860166D02*
X153231066Y-98960166D01*
X153231066Y-98960166D02*
X153197733Y-99026833D01*
X153197733Y-99026833D02*
X153164400Y-99060166D01*
X153164400Y-99060166D02*
X153097733Y-99093500D01*
X153097733Y-99093500D02*
X152831066Y-99093500D01*
X153431066Y-98726833D02*
X153831066Y-98726833D01*
X153631066Y-99426833D02*
X153631066Y-98726833D01*
X154431066Y-99426833D02*
X154031066Y-99426833D01*
X154231066Y-99426833D02*
X154231066Y-98726833D01*
X154231066Y-98726833D02*
X154164399Y-98826833D01*
X154164399Y-98826833D02*
X154097733Y-98893500D01*
X154097733Y-98893500D02*
X154031066Y-98926833D01*
X154864400Y-98726833D02*
X154931066Y-98726833D01*
X154931066Y-98726833D02*
X154997733Y-98760166D01*
X154997733Y-98760166D02*
X155031066Y-98793500D01*
X155031066Y-98793500D02*
X155064400Y-98860166D01*
X155064400Y-98860166D02*
X155097733Y-98993500D01*
X155097733Y-98993500D02*
X155097733Y-99160166D01*
X155097733Y-99160166D02*
X155064400Y-99293500D01*
X155064400Y-99293500D02*
X155031066Y-99360166D01*
X155031066Y-99360166D02*
X154997733Y-99393500D01*
X154997733Y-99393500D02*
X154931066Y-99426833D01*
X154931066Y-99426833D02*
X154864400Y-99426833D01*
X154864400Y-99426833D02*
X154797733Y-99393500D01*
X154797733Y-99393500D02*
X154764400Y-99360166D01*
X154764400Y-99360166D02*
X154731066Y-99293500D01*
X154731066Y-99293500D02*
X154697733Y-99160166D01*
X154697733Y-99160166D02*
X154697733Y-98993500D01*
X154697733Y-98993500D02*
X154731066Y-98860166D01*
X154731066Y-98860166D02*
X154764400Y-98793500D01*
X154764400Y-98793500D02*
X154797733Y-98760166D01*
X154797733Y-98760166D02*
X154864400Y-98726833D01*
X155697733Y-98726833D02*
X155564400Y-98726833D01*
X155564400Y-98726833D02*
X155497733Y-98760166D01*
X155497733Y-98760166D02*
X155464400Y-98793500D01*
X155464400Y-98793500D02*
X155397733Y-98893500D01*
X155397733Y-98893500D02*
X155364400Y-99026833D01*
X155364400Y-99026833D02*
X155364400Y-99293500D01*
X155364400Y-99293500D02*
X155397733Y-99360166D01*
X155397733Y-99360166D02*
X155431067Y-99393500D01*
X155431067Y-99393500D02*
X155497733Y-99426833D01*
X155497733Y-99426833D02*
X155631067Y-99426833D01*
X155631067Y-99426833D02*
X155697733Y-99393500D01*
X155697733Y-99393500D02*
X155731067Y-99360166D01*
X155731067Y-99360166D02*
X155764400Y-99293500D01*
X155764400Y-99293500D02*
X155764400Y-99126833D01*
X155764400Y-99126833D02*
X155731067Y-99060166D01*
X155731067Y-99060166D02*
X155697733Y-99026833D01*
X155697733Y-99026833D02*
X155631067Y-98993500D01*
X155631067Y-98993500D02*
X155497733Y-98993500D01*
X155497733Y-98993500D02*
X155431067Y-99026833D01*
X155431067Y-99026833D02*
X155397733Y-99060166D01*
X155397733Y-99060166D02*
X155364400Y-99126833D01*
X156031067Y-98793500D02*
X156064400Y-98760166D01*
X156064400Y-98760166D02*
X156131067Y-98726833D01*
X156131067Y-98726833D02*
X156297734Y-98726833D01*
X156297734Y-98726833D02*
X156364400Y-98760166D01*
X156364400Y-98760166D02*
X156397734Y-98793500D01*
X156397734Y-98793500D02*
X156431067Y-98860166D01*
X156431067Y-98860166D02*
X156431067Y-98926833D01*
X156431067Y-98926833D02*
X156397734Y-99026833D01*
X156397734Y-99026833D02*
X155997734Y-99426833D01*
X155997734Y-99426833D02*
X156431067Y-99426833D01*
X152111066Y-98156833D02*
X152111066Y-97456833D01*
X152111066Y-97456833D02*
X152277733Y-97456833D01*
X152277733Y-97456833D02*
X152377733Y-97490166D01*
X152377733Y-97490166D02*
X152444400Y-97556833D01*
X152444400Y-97556833D02*
X152477733Y-97623500D01*
X152477733Y-97623500D02*
X152511066Y-97756833D01*
X152511066Y-97756833D02*
X152511066Y-97856833D01*
X152511066Y-97856833D02*
X152477733Y-97990166D01*
X152477733Y-97990166D02*
X152444400Y-98056833D01*
X152444400Y-98056833D02*
X152377733Y-98123500D01*
X152377733Y-98123500D02*
X152277733Y-98156833D01*
X152277733Y-98156833D02*
X152111066Y-98156833D01*
X152711066Y-97456833D02*
X152944400Y-98156833D01*
X152944400Y-98156833D02*
X153177733Y-97456833D01*
X153611066Y-97456833D02*
X153611066Y-97956833D01*
X153611066Y-97956833D02*
X153577733Y-98056833D01*
X153577733Y-98056833D02*
X153511066Y-98123500D01*
X153511066Y-98123500D02*
X153411066Y-98156833D01*
X153411066Y-98156833D02*
X153344400Y-98156833D01*
X154244399Y-97456833D02*
X154111066Y-97456833D01*
X154111066Y-97456833D02*
X154044399Y-97490166D01*
X154044399Y-97490166D02*
X154011066Y-97523500D01*
X154011066Y-97523500D02*
X153944399Y-97623500D01*
X153944399Y-97623500D02*
X153911066Y-97756833D01*
X153911066Y-97756833D02*
X153911066Y-98023500D01*
X153911066Y-98023500D02*
X153944399Y-98090166D01*
X153944399Y-98090166D02*
X153977733Y-98123500D01*
X153977733Y-98123500D02*
X154044399Y-98156833D01*
X154044399Y-98156833D02*
X154177733Y-98156833D01*
X154177733Y-98156833D02*
X154244399Y-98123500D01*
X154244399Y-98123500D02*
X154277733Y-98090166D01*
X154277733Y-98090166D02*
X154311066Y-98023500D01*
X154311066Y-98023500D02*
X154311066Y-97856833D01*
X154311066Y-97856833D02*
X154277733Y-97790166D01*
X154277733Y-97790166D02*
X154244399Y-97756833D01*
X154244399Y-97756833D02*
X154177733Y-97723500D01*
X154177733Y-97723500D02*
X154044399Y-97723500D01*
X154044399Y-97723500D02*
X153977733Y-97756833D01*
X153977733Y-97756833D02*
X153944399Y-97790166D01*
X153944399Y-97790166D02*
X153911066Y-97856833D01*
X154577733Y-97956833D02*
X154911066Y-97956833D01*
X154511066Y-98156833D02*
X154744400Y-97456833D01*
X154744400Y-97456833D02*
X154977733Y-98156833D01*
X153769219Y-127629847D02*
X152769219Y-127629847D01*
X152769219Y-127629847D02*
X153483504Y-127296514D01*
X153483504Y-127296514D02*
X152769219Y-126963181D01*
X152769219Y-126963181D02*
X153769219Y-126963181D01*
X153769219Y-126486990D02*
X153102552Y-126486990D01*
X152769219Y-126486990D02*
X152816838Y-126534609D01*
X152816838Y-126534609D02*
X152864457Y-126486990D01*
X152864457Y-126486990D02*
X152816838Y-126439371D01*
X152816838Y-126439371D02*
X152769219Y-126486990D01*
X152769219Y-126486990D02*
X152864457Y-126486990D01*
X153721600Y-125582229D02*
X153769219Y-125677467D01*
X153769219Y-125677467D02*
X153769219Y-125867943D01*
X153769219Y-125867943D02*
X153721600Y-125963181D01*
X153721600Y-125963181D02*
X153673980Y-126010800D01*
X153673980Y-126010800D02*
X153578742Y-126058419D01*
X153578742Y-126058419D02*
X153293028Y-126058419D01*
X153293028Y-126058419D02*
X153197790Y-126010800D01*
X153197790Y-126010800D02*
X153150171Y-125963181D01*
X153150171Y-125963181D02*
X153102552Y-125867943D01*
X153102552Y-125867943D02*
X153102552Y-125677467D01*
X153102552Y-125677467D02*
X153150171Y-125582229D01*
X153769219Y-125153657D02*
X153102552Y-125153657D01*
X153293028Y-125153657D02*
X153197790Y-125106038D01*
X153197790Y-125106038D02*
X153150171Y-125058419D01*
X153150171Y-125058419D02*
X153102552Y-124963181D01*
X153102552Y-124963181D02*
X153102552Y-124867943D01*
X153769219Y-124391752D02*
X153721600Y-124486990D01*
X153721600Y-124486990D02*
X153673980Y-124534609D01*
X153673980Y-124534609D02*
X153578742Y-124582228D01*
X153578742Y-124582228D02*
X153293028Y-124582228D01*
X153293028Y-124582228D02*
X153197790Y-124534609D01*
X153197790Y-124534609D02*
X153150171Y-124486990D01*
X153150171Y-124486990D02*
X153102552Y-124391752D01*
X153102552Y-124391752D02*
X153102552Y-124248895D01*
X153102552Y-124248895D02*
X153150171Y-124153657D01*
X153150171Y-124153657D02*
X153197790Y-124106038D01*
X153197790Y-124106038D02*
X153293028Y-124058419D01*
X153293028Y-124058419D02*
X153578742Y-124058419D01*
X153578742Y-124058419D02*
X153673980Y-124106038D01*
X153673980Y-124106038D02*
X153721600Y-124153657D01*
X153721600Y-124153657D02*
X153769219Y-124248895D01*
X153769219Y-124248895D02*
X153769219Y-124391752D01*
X153721600Y-122915561D02*
X153769219Y-122772704D01*
X153769219Y-122772704D02*
X153769219Y-122534609D01*
X153769219Y-122534609D02*
X153721600Y-122439371D01*
X153721600Y-122439371D02*
X153673980Y-122391752D01*
X153673980Y-122391752D02*
X153578742Y-122344133D01*
X153578742Y-122344133D02*
X153483504Y-122344133D01*
X153483504Y-122344133D02*
X153388266Y-122391752D01*
X153388266Y-122391752D02*
X153340647Y-122439371D01*
X153340647Y-122439371D02*
X153293028Y-122534609D01*
X153293028Y-122534609D02*
X153245409Y-122725085D01*
X153245409Y-122725085D02*
X153197790Y-122820323D01*
X153197790Y-122820323D02*
X153150171Y-122867942D01*
X153150171Y-122867942D02*
X153054933Y-122915561D01*
X153054933Y-122915561D02*
X152959695Y-122915561D01*
X152959695Y-122915561D02*
X152864457Y-122867942D01*
X152864457Y-122867942D02*
X152816838Y-122820323D01*
X152816838Y-122820323D02*
X152769219Y-122725085D01*
X152769219Y-122725085D02*
X152769219Y-122486990D01*
X152769219Y-122486990D02*
X152816838Y-122344133D01*
X153769219Y-121915561D02*
X152769219Y-121915561D01*
X152769219Y-121915561D02*
X152769219Y-121677466D01*
X152769219Y-121677466D02*
X152816838Y-121534609D01*
X152816838Y-121534609D02*
X152912076Y-121439371D01*
X152912076Y-121439371D02*
X153007314Y-121391752D01*
X153007314Y-121391752D02*
X153197790Y-121344133D01*
X153197790Y-121344133D02*
X153340647Y-121344133D01*
X153340647Y-121344133D02*
X153531123Y-121391752D01*
X153531123Y-121391752D02*
X153626361Y-121439371D01*
X153626361Y-121439371D02*
X153721600Y-121534609D01*
X153721600Y-121534609D02*
X153769219Y-121677466D01*
X153769219Y-121677466D02*
X153769219Y-121915561D01*
X153733856Y-88246809D02*
X154067189Y-88246809D01*
X154210046Y-88770619D02*
X153733856Y-88770619D01*
X153733856Y-88770619D02*
X153733856Y-87770619D01*
X153733856Y-87770619D02*
X154210046Y-87770619D01*
X154495761Y-88103952D02*
X154876713Y-88103952D01*
X154638618Y-87770619D02*
X154638618Y-88627761D01*
X154638618Y-88627761D02*
X154686237Y-88723000D01*
X154686237Y-88723000D02*
X154781475Y-88770619D01*
X154781475Y-88770619D02*
X154876713Y-88770619D01*
X155210047Y-88770619D02*
X155210047Y-87770619D01*
X155638618Y-88770619D02*
X155638618Y-88246809D01*
X155638618Y-88246809D02*
X155590999Y-88151571D01*
X155590999Y-88151571D02*
X155495761Y-88103952D01*
X155495761Y-88103952D02*
X155352904Y-88103952D01*
X155352904Y-88103952D02*
X155257666Y-88151571D01*
X155257666Y-88151571D02*
X155210047Y-88199190D01*
X156495761Y-88723000D02*
X156400523Y-88770619D01*
X156400523Y-88770619D02*
X156210047Y-88770619D01*
X156210047Y-88770619D02*
X156114809Y-88723000D01*
X156114809Y-88723000D02*
X156067190Y-88627761D01*
X156067190Y-88627761D02*
X156067190Y-88246809D01*
X156067190Y-88246809D02*
X156114809Y-88151571D01*
X156114809Y-88151571D02*
X156210047Y-88103952D01*
X156210047Y-88103952D02*
X156400523Y-88103952D01*
X156400523Y-88103952D02*
X156495761Y-88151571D01*
X156495761Y-88151571D02*
X156543380Y-88246809D01*
X156543380Y-88246809D02*
X156543380Y-88342047D01*
X156543380Y-88342047D02*
X156067190Y-88437285D01*
X156971952Y-88770619D02*
X156971952Y-88103952D01*
X156971952Y-88294428D02*
X157019571Y-88199190D01*
X157019571Y-88199190D02*
X157067190Y-88151571D01*
X157067190Y-88151571D02*
X157162428Y-88103952D01*
X157162428Y-88103952D02*
X157257666Y-88103952D01*
X157591000Y-88103952D02*
X157591000Y-88770619D01*
X157591000Y-88199190D02*
X157638619Y-88151571D01*
X157638619Y-88151571D02*
X157733857Y-88103952D01*
X157733857Y-88103952D02*
X157876714Y-88103952D01*
X157876714Y-88103952D02*
X157971952Y-88151571D01*
X157971952Y-88151571D02*
X158019571Y-88246809D01*
X158019571Y-88246809D02*
X158019571Y-88770619D01*
X158876714Y-88723000D02*
X158781476Y-88770619D01*
X158781476Y-88770619D02*
X158591000Y-88770619D01*
X158591000Y-88770619D02*
X158495762Y-88723000D01*
X158495762Y-88723000D02*
X158448143Y-88627761D01*
X158448143Y-88627761D02*
X158448143Y-88246809D01*
X158448143Y-88246809D02*
X158495762Y-88151571D01*
X158495762Y-88151571D02*
X158591000Y-88103952D01*
X158591000Y-88103952D02*
X158781476Y-88103952D01*
X158781476Y-88103952D02*
X158876714Y-88151571D01*
X158876714Y-88151571D02*
X158924333Y-88246809D01*
X158924333Y-88246809D02*
X158924333Y-88342047D01*
X158924333Y-88342047D02*
X158448143Y-88437285D01*
X159210048Y-88103952D02*
X159591000Y-88103952D01*
X159352905Y-87770619D02*
X159352905Y-88627761D01*
X159352905Y-88627761D02*
X159400524Y-88723000D01*
X159400524Y-88723000D02*
X159495762Y-88770619D01*
X159495762Y-88770619D02*
X159591000Y-88770619D01*
X150280019Y-85224523D02*
X151089542Y-85224523D01*
X151089542Y-85224523D02*
X151184780Y-85176904D01*
X151184780Y-85176904D02*
X151232400Y-85129285D01*
X151232400Y-85129285D02*
X151280019Y-85034047D01*
X151280019Y-85034047D02*
X151280019Y-84843571D01*
X151280019Y-84843571D02*
X151232400Y-84748333D01*
X151232400Y-84748333D02*
X151184780Y-84700714D01*
X151184780Y-84700714D02*
X151089542Y-84653095D01*
X151089542Y-84653095D02*
X150280019Y-84653095D01*
X151232400Y-84224523D02*
X151280019Y-84081666D01*
X151280019Y-84081666D02*
X151280019Y-83843571D01*
X151280019Y-83843571D02*
X151232400Y-83748333D01*
X151232400Y-83748333D02*
X151184780Y-83700714D01*
X151184780Y-83700714D02*
X151089542Y-83653095D01*
X151089542Y-83653095D02*
X150994304Y-83653095D01*
X150994304Y-83653095D02*
X150899066Y-83700714D01*
X150899066Y-83700714D02*
X150851447Y-83748333D01*
X150851447Y-83748333D02*
X150803828Y-83843571D01*
X150803828Y-83843571D02*
X150756209Y-84034047D01*
X150756209Y-84034047D02*
X150708590Y-84129285D01*
X150708590Y-84129285D02*
X150660971Y-84176904D01*
X150660971Y-84176904D02*
X150565733Y-84224523D01*
X150565733Y-84224523D02*
X150470495Y-84224523D01*
X150470495Y-84224523D02*
X150375257Y-84176904D01*
X150375257Y-84176904D02*
X150327638Y-84129285D01*
X150327638Y-84129285D02*
X150280019Y-84034047D01*
X150280019Y-84034047D02*
X150280019Y-83795952D01*
X150280019Y-83795952D02*
X150327638Y-83653095D01*
X150756209Y-82891190D02*
X150803828Y-82748333D01*
X150803828Y-82748333D02*
X150851447Y-82700714D01*
X150851447Y-82700714D02*
X150946685Y-82653095D01*
X150946685Y-82653095D02*
X151089542Y-82653095D01*
X151089542Y-82653095D02*
X151184780Y-82700714D01*
X151184780Y-82700714D02*
X151232400Y-82748333D01*
X151232400Y-82748333D02*
X151280019Y-82843571D01*
X151280019Y-82843571D02*
X151280019Y-83224523D01*
X151280019Y-83224523D02*
X150280019Y-83224523D01*
X150280019Y-83224523D02*
X150280019Y-82891190D01*
X150280019Y-82891190D02*
X150327638Y-82795952D01*
X150327638Y-82795952D02*
X150375257Y-82748333D01*
X150375257Y-82748333D02*
X150470495Y-82700714D01*
X150470495Y-82700714D02*
X150565733Y-82700714D01*
X150565733Y-82700714D02*
X150660971Y-82748333D01*
X150660971Y-82748333D02*
X150708590Y-82795952D01*
X150708590Y-82795952D02*
X150756209Y-82891190D01*
X150756209Y-82891190D02*
X150756209Y-83224523D01*
X151280019Y-81462618D02*
X150280019Y-81462618D01*
X150756209Y-81462618D02*
X150756209Y-80891190D01*
X151280019Y-80891190D02*
X150280019Y-80891190D01*
X151280019Y-80272142D02*
X151232400Y-80367380D01*
X151232400Y-80367380D02*
X151184780Y-80414999D01*
X151184780Y-80414999D02*
X151089542Y-80462618D01*
X151089542Y-80462618D02*
X150803828Y-80462618D01*
X150803828Y-80462618D02*
X150708590Y-80414999D01*
X150708590Y-80414999D02*
X150660971Y-80367380D01*
X150660971Y-80367380D02*
X150613352Y-80272142D01*
X150613352Y-80272142D02*
X150613352Y-80129285D01*
X150613352Y-80129285D02*
X150660971Y-80034047D01*
X150660971Y-80034047D02*
X150708590Y-79986428D01*
X150708590Y-79986428D02*
X150803828Y-79938809D01*
X150803828Y-79938809D02*
X151089542Y-79938809D01*
X151089542Y-79938809D02*
X151184780Y-79986428D01*
X151184780Y-79986428D02*
X151232400Y-80034047D01*
X151232400Y-80034047D02*
X151280019Y-80129285D01*
X151280019Y-80129285D02*
X151280019Y-80272142D01*
X151232400Y-79557856D02*
X151280019Y-79462618D01*
X151280019Y-79462618D02*
X151280019Y-79272142D01*
X151280019Y-79272142D02*
X151232400Y-79176904D01*
X151232400Y-79176904D02*
X151137161Y-79129285D01*
X151137161Y-79129285D02*
X151089542Y-79129285D01*
X151089542Y-79129285D02*
X150994304Y-79176904D01*
X150994304Y-79176904D02*
X150946685Y-79272142D01*
X150946685Y-79272142D02*
X150946685Y-79414999D01*
X150946685Y-79414999D02*
X150899066Y-79510237D01*
X150899066Y-79510237D02*
X150803828Y-79557856D01*
X150803828Y-79557856D02*
X150756209Y-79557856D01*
X150756209Y-79557856D02*
X150660971Y-79510237D01*
X150660971Y-79510237D02*
X150613352Y-79414999D01*
X150613352Y-79414999D02*
X150613352Y-79272142D01*
X150613352Y-79272142D02*
X150660971Y-79176904D01*
X150613352Y-78843570D02*
X150613352Y-78462618D01*
X150280019Y-78700713D02*
X151137161Y-78700713D01*
X151137161Y-78700713D02*
X151232400Y-78653094D01*
X151232400Y-78653094D02*
X151280019Y-78557856D01*
X151280019Y-78557856D02*
X151280019Y-78462618D01*
X152052495Y-73165619D02*
X152052495Y-73975142D01*
X152052495Y-73975142D02*
X152100114Y-74070380D01*
X152100114Y-74070380D02*
X152147733Y-74118000D01*
X152147733Y-74118000D02*
X152242971Y-74165619D01*
X152242971Y-74165619D02*
X152433447Y-74165619D01*
X152433447Y-74165619D02*
X152528685Y-74118000D01*
X152528685Y-74118000D02*
X152576304Y-74070380D01*
X152576304Y-74070380D02*
X152623923Y-73975142D01*
X152623923Y-73975142D02*
X152623923Y-73165619D01*
X153052495Y-74118000D02*
X153195352Y-74165619D01*
X153195352Y-74165619D02*
X153433447Y-74165619D01*
X153433447Y-74165619D02*
X153528685Y-74118000D01*
X153528685Y-74118000D02*
X153576304Y-74070380D01*
X153576304Y-74070380D02*
X153623923Y-73975142D01*
X153623923Y-73975142D02*
X153623923Y-73879904D01*
X153623923Y-73879904D02*
X153576304Y-73784666D01*
X153576304Y-73784666D02*
X153528685Y-73737047D01*
X153528685Y-73737047D02*
X153433447Y-73689428D01*
X153433447Y-73689428D02*
X153242971Y-73641809D01*
X153242971Y-73641809D02*
X153147733Y-73594190D01*
X153147733Y-73594190D02*
X153100114Y-73546571D01*
X153100114Y-73546571D02*
X153052495Y-73451333D01*
X153052495Y-73451333D02*
X153052495Y-73356095D01*
X153052495Y-73356095D02*
X153100114Y-73260857D01*
X153100114Y-73260857D02*
X153147733Y-73213238D01*
X153147733Y-73213238D02*
X153242971Y-73165619D01*
X153242971Y-73165619D02*
X153481066Y-73165619D01*
X153481066Y-73165619D02*
X153623923Y-73213238D01*
X154385828Y-73641809D02*
X154528685Y-73689428D01*
X154528685Y-73689428D02*
X154576304Y-73737047D01*
X154576304Y-73737047D02*
X154623923Y-73832285D01*
X154623923Y-73832285D02*
X154623923Y-73975142D01*
X154623923Y-73975142D02*
X154576304Y-74070380D01*
X154576304Y-74070380D02*
X154528685Y-74118000D01*
X154528685Y-74118000D02*
X154433447Y-74165619D01*
X154433447Y-74165619D02*
X154052495Y-74165619D01*
X154052495Y-74165619D02*
X154052495Y-73165619D01*
X154052495Y-73165619D02*
X154385828Y-73165619D01*
X154385828Y-73165619D02*
X154481066Y-73213238D01*
X154481066Y-73213238D02*
X154528685Y-73260857D01*
X154528685Y-73260857D02*
X154576304Y-73356095D01*
X154576304Y-73356095D02*
X154576304Y-73451333D01*
X154576304Y-73451333D02*
X154528685Y-73546571D01*
X154528685Y-73546571D02*
X154481066Y-73594190D01*
X154481066Y-73594190D02*
X154385828Y-73641809D01*
X154385828Y-73641809D02*
X154052495Y-73641809D01*
X133563095Y-89589819D02*
X133563095Y-90399342D01*
X133563095Y-90399342D02*
X133610714Y-90494580D01*
X133610714Y-90494580D02*
X133658333Y-90542200D01*
X133658333Y-90542200D02*
X133753571Y-90589819D01*
X133753571Y-90589819D02*
X133944047Y-90589819D01*
X133944047Y-90589819D02*
X134039285Y-90542200D01*
X134039285Y-90542200D02*
X134086904Y-90494580D01*
X134086904Y-90494580D02*
X134134523Y-90399342D01*
X134134523Y-90399342D02*
X134134523Y-89589819D01*
X134563095Y-89685057D02*
X134610714Y-89637438D01*
X134610714Y-89637438D02*
X134705952Y-89589819D01*
X134705952Y-89589819D02*
X134944047Y-89589819D01*
X134944047Y-89589819D02*
X135039285Y-89637438D01*
X135039285Y-89637438D02*
X135086904Y-89685057D01*
X135086904Y-89685057D02*
X135134523Y-89780295D01*
X135134523Y-89780295D02*
X135134523Y-89875533D01*
X135134523Y-89875533D02*
X135086904Y-90018390D01*
X135086904Y-90018390D02*
X134515476Y-90589819D01*
X134515476Y-90589819D02*
X135134523Y-90589819D01*
X133376419Y-124510266D02*
X132900228Y-124843599D01*
X133376419Y-125081694D02*
X132376419Y-125081694D01*
X132376419Y-125081694D02*
X132376419Y-124700742D01*
X132376419Y-124700742D02*
X132424038Y-124605504D01*
X132424038Y-124605504D02*
X132471657Y-124557885D01*
X132471657Y-124557885D02*
X132566895Y-124510266D01*
X132566895Y-124510266D02*
X132709752Y-124510266D01*
X132709752Y-124510266D02*
X132804990Y-124557885D01*
X132804990Y-124557885D02*
X132852609Y-124605504D01*
X132852609Y-124605504D02*
X132900228Y-124700742D01*
X132900228Y-124700742D02*
X132900228Y-125081694D01*
X133376419Y-123557885D02*
X133376419Y-124129313D01*
X133376419Y-123843599D02*
X132376419Y-123843599D01*
X132376419Y-123843599D02*
X132519276Y-123938837D01*
X132519276Y-123938837D02*
X132614514Y-124034075D01*
X132614514Y-124034075D02*
X132662133Y-124129313D01*
X174454819Y-101833333D02*
X175169104Y-101833333D01*
X175169104Y-101833333D02*
X175311961Y-101880952D01*
X175311961Y-101880952D02*
X175407200Y-101976190D01*
X175407200Y-101976190D02*
X175454819Y-102119047D01*
X175454819Y-102119047D02*
X175454819Y-102214285D01*
X174550057Y-101404761D02*
X174502438Y-101357142D01*
X174502438Y-101357142D02*
X174454819Y-101261904D01*
X174454819Y-101261904D02*
X174454819Y-101023809D01*
X174454819Y-101023809D02*
X174502438Y-100928571D01*
X174502438Y-100928571D02*
X174550057Y-100880952D01*
X174550057Y-100880952D02*
X174645295Y-100833333D01*
X174645295Y-100833333D02*
X174740533Y-100833333D01*
X174740533Y-100833333D02*
X174883390Y-100880952D01*
X174883390Y-100880952D02*
X175454819Y-101452380D01*
X175454819Y-101452380D02*
X175454819Y-100833333D01*
D11*
%TO.C,J1*%
X131810000Y-94300000D02*
X124190000Y-94300000D01*
X131810000Y-94300000D02*
X131810000Y-114620000D01*
X124190000Y-94300000D02*
X124190000Y-114620000D01*
X125460000Y-114620000D02*
X125460000Y-94300000D01*
X124190000Y-114620000D02*
X131810000Y-114620000D01*
%TO.C,C1*%
X174630000Y-126777600D02*
X174945000Y-126777600D01*
X174630000Y-126777600D02*
X174630000Y-121837600D01*
X177055000Y-126777600D02*
X177370000Y-126777600D01*
X177370000Y-126777600D02*
X177370000Y-121837600D01*
X174630000Y-121837600D02*
X174945000Y-121837600D01*
X177055000Y-121837600D02*
X177370000Y-121837600D01*
%TO.C,SW1*%
X176500000Y-111750000D02*
X176500000Y-110250000D01*
X175250000Y-107750000D02*
X170750000Y-107750000D01*
X170750000Y-114250000D02*
X175250000Y-114250000D01*
X169500000Y-110250000D02*
X169500000Y-111750000D01*
%TO.C,J3*%
X171602400Y-81620000D02*
X179222400Y-81620000D01*
X179222400Y-81620000D02*
X179222400Y-71460000D01*
X171602400Y-71460000D02*
X171602400Y-81620000D01*
X177952400Y-71460000D02*
X177952400Y-81620000D01*
X179222400Y-71460000D02*
X171602400Y-71460000D01*
%TO.C,R2*%
X169519600Y-128042800D02*
X169519600Y-127272800D01*
X168149600Y-127272800D02*
X170889600Y-127272800D01*
X170889600Y-127272800D02*
X170889600Y-120732800D01*
X168149600Y-120732800D02*
X168149600Y-127272800D01*
X170889600Y-120732800D02*
X168149600Y-120732800D01*
X169519600Y-119962800D02*
X169519600Y-120732800D01*
%TO.C,D1*%
X129236000Y-117710000D02*
X129080000Y-117710000D01*
X126920000Y-117710000D02*
X126764000Y-117710000D01*
X129078608Y-120942334D02*
G75*
G03*
X129235515Y-117710001I-1078608J1672334D01*
G01*
X129079836Y-120311129D02*
G75*
G03*
X129079999Y-118229040I-1079836J1041129D01*
G01*
X126920001Y-118229040D02*
G75*
G03*
X126920164Y-120311129I1079999J-1040960D01*
G01*
X126764485Y-117710001D02*
G75*
G03*
X126921392Y-120942334I1235515J-1559999D01*
G01*
D10*
%TO.C,U1*%
X157124400Y-68630800D02*
X157124400Y-69900800D01*
X149504400Y-68630800D02*
X157124400Y-68630800D01*
X162204400Y-69900800D02*
X162204400Y-130860800D01*
X149504400Y-69900800D02*
X149504400Y-68630800D01*
X144424400Y-69900800D02*
X162204400Y-69900800D01*
X157124400Y-74980800D02*
X157124400Y-69900800D01*
X149504400Y-74980800D02*
X149504400Y-69900800D01*
X149504400Y-74980800D02*
X157124400Y-74980800D01*
X150015200Y-76200000D02*
X150015200Y-78740000D01*
X150015200Y-76200000D02*
X150015200Y-88900000D01*
X147475200Y-76200000D02*
X150015200Y-76200000D01*
X150015200Y-78740000D02*
X147475200Y-78740000D01*
X159666000Y-83130800D02*
X159416000Y-83130800D01*
X159416000Y-83130800D02*
X153416000Y-83130800D01*
X153416000Y-83130800D02*
X153416000Y-87130800D01*
X159666000Y-87130800D02*
X159666000Y-83130800D01*
X153416000Y-87130800D02*
X159666000Y-87130800D01*
X150015200Y-88900000D02*
X147475200Y-88900000D01*
X147475200Y-88900000D02*
X147475200Y-76200000D01*
X159664400Y-92760800D02*
X146964400Y-92760800D01*
X146964400Y-92760800D02*
X146964400Y-105460800D01*
X159664400Y-105460800D02*
X159664400Y-92760800D01*
X146964400Y-105460800D02*
X159664400Y-105460800D01*
X154584400Y-110540800D02*
X154584400Y-114350800D01*
X152044400Y-110540800D02*
X154584400Y-110540800D01*
X154584400Y-114350800D02*
X152044400Y-114350800D01*
X152044400Y-114350800D02*
X152044400Y-110540800D01*
X159664400Y-118160800D02*
X146964400Y-118160800D01*
X146964400Y-118160800D02*
X146964400Y-130860800D01*
X158394400Y-129590800D02*
X148234400Y-129590800D01*
X148234400Y-129590800D02*
X148234400Y-130860800D01*
X162204400Y-130860800D02*
X144424400Y-130860800D01*
X159664400Y-130860800D02*
X159664400Y-118160800D01*
X158394400Y-130860800D02*
X158394400Y-129590800D01*
X144424400Y-130860800D02*
X144424400Y-69900800D01*
X154212426Y-112445800D02*
G75*
G03*
X154212426Y-112445800I-898026J0D01*
G01*
D12*
X154383400Y-101037800D02*
X154002400Y-101291800D01*
X153748400Y-101037800D01*
X154129400Y-100783800D01*
X154383400Y-101037800D01*
G36*
X154383400Y-101037800D02*
G01*
X154002400Y-101291800D01*
X153748400Y-101037800D01*
X154129400Y-100783800D01*
X154383400Y-101037800D01*
G37*
X153875400Y-101418800D02*
X153494400Y-101672800D01*
X153240400Y-101418800D01*
X153621400Y-101164800D01*
X153875400Y-101418800D01*
G36*
X153875400Y-101418800D02*
G01*
X153494400Y-101672800D01*
X153240400Y-101418800D01*
X153621400Y-101164800D01*
X153875400Y-101418800D01*
G37*
X154256400Y-101799800D02*
X153875400Y-102053800D01*
X153621400Y-101799800D01*
X154002400Y-101545800D01*
X154256400Y-101799800D01*
G36*
X154256400Y-101799800D02*
G01*
X153875400Y-102053800D01*
X153621400Y-101799800D01*
X154002400Y-101545800D01*
X154256400Y-101799800D01*
G37*
X153367400Y-101799800D02*
X152986400Y-102053800D01*
X152732400Y-101799800D01*
X153113400Y-101545800D01*
X153367400Y-101799800D01*
G36*
X153367400Y-101799800D02*
G01*
X152986400Y-102053800D01*
X152732400Y-101799800D01*
X153113400Y-101545800D01*
X153367400Y-101799800D01*
G37*
X153748400Y-102180800D02*
X153367400Y-102434800D01*
X153113400Y-102180800D01*
X153494400Y-101926800D01*
X153748400Y-102180800D01*
G36*
X153748400Y-102180800D02*
G01*
X153367400Y-102434800D01*
X153113400Y-102180800D01*
X153494400Y-101926800D01*
X153748400Y-102180800D01*
G37*
X153240400Y-102561800D02*
X152859400Y-102815800D01*
X152605400Y-102561800D01*
X152986400Y-102307800D01*
X153240400Y-102561800D01*
G36*
X153240400Y-102561800D02*
G01*
X152859400Y-102815800D01*
X152605400Y-102561800D01*
X152986400Y-102307800D01*
X153240400Y-102561800D01*
G37*
X153621400Y-102942800D02*
X153240400Y-103196800D01*
X152986400Y-102942800D01*
X153367400Y-102688800D01*
X153621400Y-102942800D01*
G36*
X153621400Y-102942800D02*
G01*
X153240400Y-103196800D01*
X152986400Y-102942800D01*
X153367400Y-102688800D01*
X153621400Y-102942800D01*
G37*
X154002400Y-103323800D02*
X153621400Y-103577800D01*
X153367400Y-103323800D01*
X153748400Y-103069800D01*
X154002400Y-103323800D01*
G36*
X154002400Y-103323800D02*
G01*
X153621400Y-103577800D01*
X153367400Y-103323800D01*
X153748400Y-103069800D01*
X154002400Y-103323800D01*
G37*
D13*
%TO.C,U2*%
X137665000Y-89025000D02*
X124335000Y-89025000D01*
X137665000Y-72975000D02*
X137665000Y-89025000D01*
X124335000Y-89025000D02*
X124335000Y-72975000D01*
X124335000Y-72975000D02*
X137665000Y-72975000D01*
D11*
%TO.C,R1*%
X135291600Y-128383600D02*
X135291600Y-127613600D01*
X133921600Y-127613600D02*
X136661600Y-127613600D01*
X136661600Y-127613600D02*
X136661600Y-121073600D01*
X133921600Y-121073600D02*
X133921600Y-127613600D01*
X136661600Y-121073600D02*
X133921600Y-121073600D01*
X135291600Y-120303600D02*
X135291600Y-121073600D01*
%TO.C,J2*%
X171450000Y-100126800D02*
X171450000Y-84886800D01*
X177800000Y-100126800D02*
X177800000Y-84886800D01*
X179070000Y-100126800D02*
X171450000Y-100126800D01*
X179070000Y-100126800D02*
X179070000Y-84886800D01*
X179070000Y-84886800D02*
X171450000Y-84886800D01*
%TD*%
M02*
