%TF.GenerationSoftware,KiCad,Pcbnew,7.0.7*%
%TF.CreationDate,2023-10-16T12:51:43+02:00*%
%TF.ProjectId,kicad_pendulum_sender1,6b696361-645f-4706-956e-64756c756d5f,1.0*%
%TF.SameCoordinates,Original*%
%TF.FileFunction,Soldermask,Top*%
%TF.FilePolarity,Negative*%
%FSLAX46Y46*%
G04 Gerber Fmt 4.6, Leading zero omitted, Abs format (unit mm)*
G04 Created by KiCad (PCBNEW 7.0.7) date 2023-10-16 12:51:43*
%MOMM*%
%LPD*%
G01*
G04 APERTURE LIST*
G04 Aperture macros list*
%AMRoundRect*
0 Rectangle with rounded corners*
0 $1 Rounding radius*
0 $2 $3 $4 $5 $6 $7 $8 $9 X,Y pos of 4 corners*
0 Add a 4 corners polygon primitive as box body*
4,1,4,$2,$3,$4,$5,$6,$7,$8,$9,$2,$3,0*
0 Add four circle primitives for the rounded corners*
1,1,$1+$1,$2,$3*
1,1,$1+$1,$4,$5*
1,1,$1+$1,$6,$7*
1,1,$1+$1,$8,$9*
0 Add four rect primitives between the rounded corners*
20,1,$1+$1,$2,$3,$4,$5,0*
20,1,$1+$1,$4,$5,$6,$7,0*
20,1,$1+$1,$6,$7,$8,$9,0*
20,1,$1+$1,$8,$9,$2,$3,0*%
G04 Aperture macros list end*
%ADD10R,3.000000X3.000000*%
%ADD11C,3.000000*%
%ADD12C,1.600000*%
%ADD13C,2.000000*%
%ADD14C,3.200000*%
%ADD15O,1.600000X1.600000*%
%ADD16R,1.800000X1.800000*%
%ADD17C,1.800000*%
%ADD18R,1.600000X1.600000*%
%ADD19R,1.300000X1.300000*%
%ADD20C,1.300000*%
%ADD21C,1.728000*%
%ADD22RoundRect,0.102000X0.762000X0.762000X-0.762000X0.762000X-0.762000X-0.762000X0.762000X-0.762000X0*%
G04 APERTURE END LIST*
D10*
%TO.C,J1*%
X128000000Y-96840000D03*
D11*
X128000000Y-101920000D03*
X128000000Y-107000000D03*
X128000000Y-112080000D03*
%TD*%
D12*
%TO.C,C1*%
X176000000Y-126807600D03*
X176000000Y-121807600D03*
%TD*%
D13*
%TO.C,SW1*%
X176250000Y-113250000D03*
X169750000Y-113250000D03*
X176250000Y-108750000D03*
X169750000Y-108750000D03*
%TD*%
D14*
%TO.C,REF\u002A\u002A*%
X122500000Y-67500000D03*
X122500000Y-67500000D03*
%TD*%
D10*
%TO.C,J3*%
X175412400Y-79080000D03*
D11*
X175412400Y-74000000D03*
%TD*%
D12*
%TO.C,R2*%
X169519600Y-129082800D03*
D15*
X169519600Y-118922800D03*
%TD*%
D14*
%TO.C,REF\u002A\u002A*%
X180500000Y-67500000D03*
%TD*%
%TO.C,REF\u002A\u002A*%
X180500000Y-132000000D03*
%TD*%
D16*
%TO.C,D1*%
X128000000Y-118000000D03*
D17*
X128000000Y-120540000D03*
%TD*%
D14*
%TO.C,REF\u002A\u002A*%
X122500000Y-132000000D03*
%TD*%
D18*
%TO.C,U1*%
X145694400Y-71170800D03*
D12*
X145694400Y-73710800D03*
X145694400Y-76250800D03*
X145694400Y-78790800D03*
X145694400Y-81330800D03*
X145694400Y-83870800D03*
X145694400Y-86410800D03*
X145694400Y-88950800D03*
X145694400Y-91490800D03*
X145694400Y-94030800D03*
X145694400Y-96570800D03*
X145694400Y-99110800D03*
X145694400Y-101650800D03*
X145694400Y-104190800D03*
X145694400Y-106730800D03*
X145694400Y-109270800D03*
X145694400Y-111810800D03*
X145694400Y-114350800D03*
X145694400Y-116890800D03*
X145694400Y-119430800D03*
X145694400Y-121970800D03*
X145694400Y-124510800D03*
X145694400Y-127050800D03*
X145694400Y-129590800D03*
X160934400Y-129590800D03*
X160934400Y-127050800D03*
X160934400Y-124510800D03*
X160934400Y-121970800D03*
X160934400Y-119430800D03*
X160934400Y-116890800D03*
X160934400Y-114350800D03*
X160934400Y-111810800D03*
X160934400Y-109270800D03*
X160934400Y-106730800D03*
X160934400Y-104190800D03*
X160934400Y-101650800D03*
X160934400Y-99110800D03*
X160934400Y-96570800D03*
X160934400Y-94030800D03*
X160934400Y-91490800D03*
X160934400Y-88950800D03*
X160934400Y-86410800D03*
X160934400Y-83870800D03*
X160934400Y-81330800D03*
X160934400Y-78790800D03*
X160934400Y-76250800D03*
X160934400Y-73710800D03*
X160934400Y-71170800D03*
X158394400Y-73710800D03*
X148234400Y-116890800D03*
X150774400Y-116890800D03*
X153314400Y-116890800D03*
X155854400Y-116890800D03*
X158394400Y-116890800D03*
D18*
X148745200Y-77470000D03*
D12*
X148745200Y-80010000D03*
X148745200Y-82550000D03*
X148745200Y-85090000D03*
X148745200Y-87630000D03*
D19*
X158496000Y-84140800D03*
D20*
X156496000Y-84140800D03*
X154496000Y-84140800D03*
X154496000Y-86140800D03*
X156496000Y-86140800D03*
X158496000Y-86140800D03*
X154584400Y-71900800D03*
X152044400Y-71900800D03*
%TD*%
D21*
%TO.C,U2*%
X125920000Y-79730000D03*
X136080000Y-79730000D03*
X125920000Y-82270000D03*
D22*
X125920000Y-87350000D03*
D21*
X125920000Y-84810000D03*
X125920000Y-77190000D03*
X125920000Y-74650000D03*
X136080000Y-82270000D03*
D22*
X136080000Y-87350000D03*
D21*
X136080000Y-84810000D03*
X136080000Y-77190000D03*
X136080000Y-74650000D03*
%TD*%
D12*
%TO.C,R1*%
X135291600Y-129423600D03*
D15*
X135291600Y-119263600D03*
%TD*%
D10*
%TO.C,J2*%
X175260000Y-97586800D03*
D11*
X175260000Y-92506800D03*
X175260000Y-87426800D03*
%TD*%
M02*
