M48
; DRILL file {KiCad 7.0.7} date Mon Oct 16 12:51:37 2023
; FORMAT={-:-/ absolute / inch / decimal}
; #@! TF.CreationDate,2023-10-16T12:51:37+02:00
; #@! TF.GenerationSoftware,Kicad,Pcbnew,7.0.7
; #@! TF.FileFunction,Plated,1,2,PTH
FMAT,2
INCH
; #@! TA.AperFunction,Plated,PTH,ViaDrill
T1C0.0157
; #@! TA.AperFunction,Plated,PTH,ComponentDrill
T2C0.0315
; #@! TA.AperFunction,Plated,PTH,ComponentDrill
T3C0.0354
; #@! TA.AperFunction,Plated,PTH,ComponentDrill
T4C0.0400
; #@! TA.AperFunction,Plated,PTH,ComponentDrill
T5C0.0433
; #@! TA.AperFunction,Plated,PTH,ComponentDrill
T6C0.0598
%
G90
G05
T1
X5.6102Y-3.4252
T2
X5.3264Y-4.6954
X5.3264Y-5.0954
X5.986Y-2.8307
X6.0825Y-3.3126
X6.0825Y-3.3914
X6.086Y-2.8307
X6.1613Y-3.3126
X6.1613Y-3.3914
X6.24Y-3.3126
X6.24Y-3.3914
X6.674Y-4.682
X6.674Y-5.082
X6.9291Y-4.7956
X6.9291Y-4.9924
T3
X5.0394Y-4.6457
X5.0394Y-4.7457
T4
X4.9575Y-2.939
X4.9575Y-3.039
X4.9575Y-3.139
X4.9575Y-3.239
X4.9575Y-3.339
X4.9575Y-3.439
X5.3575Y-2.939
X5.3575Y-3.039
X5.3575Y-3.139
X5.3575Y-3.239
X5.3575Y-3.339
X5.3575Y-3.439
T5
X5.736Y-2.802
X5.736Y-2.902
X5.736Y-3.002
X5.736Y-3.102
X5.736Y-3.202
X5.736Y-3.302
X5.736Y-3.402
X5.736Y-3.502
X5.736Y-3.602
X5.736Y-3.702
X5.736Y-3.802
X5.736Y-3.902
X5.736Y-4.002
X5.736Y-4.102
X5.736Y-4.202
X5.736Y-4.302
X5.736Y-4.402
X5.736Y-4.502
X5.736Y-4.602
X5.736Y-4.702
X5.736Y-4.802
X5.736Y-4.902
X5.736Y-5.002
X5.736Y-5.102
X5.836Y-4.602
X5.8561Y-3.05
X5.8561Y-3.15
X5.8561Y-3.25
X5.8561Y-3.35
X5.8561Y-3.45
X5.936Y-4.602
X6.036Y-4.602
X6.136Y-4.602
X6.236Y-2.902
X6.236Y-4.602
X6.336Y-2.802
X6.336Y-2.902
X6.336Y-3.002
X6.336Y-3.102
X6.336Y-3.202
X6.336Y-3.302
X6.336Y-3.402
X6.336Y-3.502
X6.336Y-3.602
X6.336Y-3.702
X6.336Y-3.802
X6.336Y-3.902
X6.336Y-4.002
X6.336Y-4.102
X6.336Y-4.202
X6.336Y-4.302
X6.336Y-4.402
X6.336Y-4.502
X6.336Y-4.602
X6.336Y-4.702
X6.336Y-4.802
X6.336Y-4.902
X6.336Y-5.002
X6.336Y-5.102
X6.6831Y-4.2815
X6.6831Y-4.4587
X6.939Y-4.2815
X6.939Y-4.4587
T6
X5.0394Y-3.8126
X5.0394Y-4.0126
X5.0394Y-4.2126
X5.0394Y-4.4126
X6.9Y-3.442
X6.9Y-3.642
X6.9Y-3.842
X6.906Y-2.9134
X6.906Y-3.1134
T0
M30
